<svg xmlns="http://www.w3.org/2000/svg" xmlns:xlink="http://www.w3.org/1999/xlink" width="686" height="419" viewBox="0 0 686 419">
    <defs>
        <path id="dopspq31ta" d="M0 418.436L685.411 418.436 685.411 0 0 0z"/>
    </defs>
    <g fill="none" fill-rule="evenodd">
        <g>
            <g transform="translate(-114.000000, -305.000000) translate(114.000000, 305.000000)">
                <g fill="#CDD4E7">
                    <path d="M288.454 122.108c-24.048-3.55-46.839-13.34-66.506-28.186-29.375-22.172-90.848-59.9-149.491-41.107C-8.428 78.736-8.789 153.725 12.28 194.46c21.068 40.734 170.473 160.018 364.164 141.038C549.77 318.512 583.547 124.1 491.106 88.92c-80.176-30.513-107.529 47.232-202.652 33.188M545.495 93.333c0 4.468-3.365 8.089-7.516 8.089-4.15 0-7.515-3.621-7.515-8.09 0-4.466 3.364-8.088 7.515-8.088s7.516 3.622 7.516 8.089M47.307 40.046c2.307-.424 4.64.852 5.451 3.052 1.384 3.754-2.242 7.957-7.122 6.072-4.21-3.118-2.378-8.38 1.671-9.124M527.25 21.03c0 5.406-4.383 9.79-9.79 9.79-5.406 0-9.79-4.384-9.79-9.79 0-5.408 4.384-9.79 9.79-9.79 5.407 0 9.79 4.382 9.79 9.79M76.984 32.325c1.475 5.26-1.594 10.72-6.854 12.193-5.26 1.475-10.718-1.594-12.192-6.853-1.475-5.26 1.593-10.719 6.853-12.193 5.259-1.475 10.718 1.594 12.193 6.853M468.289 326.973c2.188-.846 4.717-.026 5.924 1.984 2.058 3.431-.723 8.236-5.869 7.291-4.717-2.28-3.895-7.79-.055-9.275M496.013 313.869c2.428 4.894.428 10.828-4.466 13.255-4.893 2.427-10.828.427-13.255-4.467-2.426-4.893-.427-10.828 4.466-13.255 4.894-2.427 10.828-.427 13.255 4.467M505.039 6.048c0 3.326-2.696 6.022-6.022 6.022-3.327 0-6.023-2.696-6.023-6.022S495.69.026 499.017.026c3.326 0 6.022 2.696 6.022 6.022" transform="translate(66.000000, 1.436000)"/>
                </g>
                <path fill="#CDD4E7" d="M587.081 116.59C587.073 62.786 542.274 3.83 486.519.268c-.979-.063-1.968-.117-2.967-.164-79.931-3.725-86.021 93.763-158.34 104.758-72.318 10.996-127.545-44.512-214.079-8.297-77.718 32.526-98.768 215.293 129.581 222.622 182.699 5.864 346.391-42.07 346.367-202.597M550.296 375.656c0 5.234-82.268 9.478-183.75 9.478s-183.75-4.244-183.75-9.478c0-5.235 82.268-9.48 183.75-9.48s183.75 4.245 183.75 9.48"/>
                <path fill="#FFF" d="M486.052 375.606H242.209v-10.56c0-8.794 7.129-15.922 15.923-15.922h211.997c8.794 0 15.923 7.128 15.923 15.922v10.56z"/>
                <mask id="nga0ji8onb" fill="#fff">
                    <use xlink:href="#dopspq31ta"/>
                </mask>
                <path fill="#FFF" d="M319.249 349.123L407.637 349.123 407.637 292.379 319.249 292.379z" mask="url(#nga0ji8onb)"/>
                <path fill="#CDD4E7" d="M319.248 309.803L407.636 302.727 407.65 292.379 319.261 292.485z" mask="url(#nga0ji8onb)"/>
                <path fill="#FFF" d="M552.562 58.057v222.527c0 6.521-5.288 11.81-11.81 11.81H178.37c-6.523 0-11.81-5.289-11.81-11.81V58.057c0-6.52 5.287-11.81 11.81-11.81h362.38c.178 0 .351.003.526.012.13.006.255.012.382.024h.014c.091.005.183.014.274.026.154.012.303.033.457.053.1.012.197.027.298.048.047.005.093.014.14.023.097.015.192.032.288.056 5.384 1.101 9.432 5.862 9.432 11.568" mask="url(#nga0ji8onb)"/>
                <path fill="#CDD4E7" d="M371.56 276.412c0 4.508-3.656 8.163-8.163 8.163-4.51 0-8.164-3.655-8.164-8.163 0-4.509 3.654-8.164 8.163-8.164 4.508 0 8.163 3.655 8.163 8.164" mask="url(#nga0ji8onb)"/>
                <path fill="#363638" d="M537.25 243.544c0 1.775-1.436 3.213-3.211 3.213H185.083c-1.775 0-3.212-1.438-3.212-3.213V64.771c0-1.776 1.437-3.213 3.212-3.213h348.956c1.775 0 3.212 1.437 3.212 3.213v178.773zm5.88-197.055c-.096-.024-.191-.04-.287-.056-.047-.009-.095-.017-.142-.023-.1-.02-.197-.036-.297-.048-.153-.02-.303-.04-.457-.052-.091-.013-.182-.02-.273-.027h-.015c-.127-.012-.253-.018-.383-.024-.173-.008-.347-.01-.524-.01H178.37c-6.522 0-11.81 5.287-11.81 11.808v206.071h386.002V58.058c0-5.707-4.048-10.468-9.431-11.569z" mask="url(#nga0ji8onb)"/>
                <path fill="#CDD4E7" d="M537.25 64.77v178.774c0 1.776-1.436 3.213-3.211 3.213H185.083c-1.775 0-3.212-1.437-3.212-3.213V64.77c0-1.775 1.437-3.212 3.212-3.212h348.956c1.775 0 3.212 1.437 3.212 3.212" mask="url(#nga0ji8onb)"/>
                <path fill="#FFF" d="M537.25 64.77v16.872H181.87V64.77c0-1.775 1.438-3.212 3.213-3.212h348.956c1.775 0 3.212 1.437 3.212 3.212" mask="url(#nga0ji8onb)"/>
                <path fill="#FE615B" d="M509.726 71.33c0 1.507-1.223 2.73-2.73 2.73-1.506 0-2.728-1.223-2.728-2.73s1.222-2.729 2.729-2.729c1.506 0 2.728 1.222 2.728 2.73" mask="url(#nga0ji8onb)"/>
                <path fill="#00B770" d="M518.57 71.33c0 1.507-1.223 2.73-2.73 2.73-1.506 0-2.729-1.223-2.729-2.73s1.223-2.729 2.73-2.729c1.506 0 2.728 1.222 2.728 2.73" mask="url(#nga0ji8onb)"/>
                <path fill="#CFDDED" d="M493.186 74.218h-277.85c-1.339 0-2.435-1.097-2.435-2.436v-.903c0-1.34 1.096-2.436 2.435-2.436h277.85c1.34 0 2.435 1.096 2.435 2.436v.903c0 1.34-1.096 2.436-2.435 2.436" mask="url(#nga0ji8onb)"/>
                <path fill="#000" d="M194.702 71.33v2.672c0 .378-.409.614-.735.425l-2.315-1.336-2.314-1.336c-.327-.189-.327-.66 0-.849l2.314-1.336 2.315-1.337c.326-.188.735.047.735.425v2.672zM198.768 71.33v2.672c0 .378.409.614.735.425l2.314-1.336 2.315-1.336c.326-.189.326-.66 0-.849l-2.315-1.336-2.314-1.337c-.326-.188-.735.047-.735.425v2.672z" mask="url(#nga0ji8onb)"/>
                <path fill="#363638" d="M522.269 73.631l-.164-.165c-.257-.255-.257-.669 0-.925l3.707-3.707c.255-.256.67-.256.925 0l.165.164c.255.256.255.67 0 .926l-3.708 3.707c-.255.256-.67.256-.925 0" mask="url(#nga0ji8onb)"/>
                <path fill="#363638" d="M526.737 73.631l.164-.165c.256-.255.256-.669 0-.925l-3.707-3.707c-.256-.256-.67-.256-.926 0l-.164.164c-.256.256-.256.67 0 .926l3.707 3.707c.256.256.67.256.926 0" mask="url(#nga0ji8onb)"/>
                <path fill="#FFF" d="M489.705 239.564H228.464c-3.547 0-6.422-2.876-6.422-6.423V92.136c0-3.547 2.875-6.422 6.422-6.422h261.241c3.547 0 6.423 2.875 6.423 6.422V233.14c0 3.547-2.876 6.423-6.423 6.423" mask="url(#nga0ji8onb)"/>
                <path fill="#CDD4E7" d="M297.651 199.002h-63.447c-1.664 0-3.014-1.35-3.014-3.014v-32.973c0-1.665 1.35-3.014 3.014-3.014h63.447c1.665 0 3.014 1.35 3.014 3.014v32.973c0 1.664-1.349 3.014-3.014 3.014M482.632 133.876h-63.447c-1.664 0-3.014-1.35-3.014-3.014V97.889c0-1.665 1.35-3.014 3.014-3.014h63.447c1.664 0 3.014 1.349 3.014 3.014v32.973c0 1.664-1.35 3.014-3.014 3.014M299.07 131.339h-66.387c-.882 0-1.596-.714-1.596-1.596v-.146c0-.882.714-1.596 1.596-1.596h66.386c.882 0 1.596.714 1.596 1.596v.146c0 .882-.714 1.596-1.596 1.596M299.07 117.214h-66.387c-.882 0-1.596-.715-1.596-1.596v-.146c0-.882.714-1.596 1.596-1.596h66.386c.882 0 1.596.714 1.596 1.596v.146c0 .881-.714 1.596-1.596 1.596M299.07 145.463h-66.387c-.882 0-1.596-.714-1.596-1.596v-.146c0-.882.714-1.596 1.596-1.596h66.386c.882 0 1.596.714 1.596 1.596v.146c0 .882-.714 1.596-1.596 1.596M484.05 164.432h-66.283c-.881 0-1.596-.714-1.596-1.596v-.146c0-.882.715-1.596 1.596-1.596h66.283c.882 0 1.596.714 1.596 1.596v.146c0 .882-.714 1.596-1.596 1.596M484.05 150.308h-66.283c-.881 0-1.596-.714-1.596-1.596v-.146c0-.882.715-1.596 1.596-1.596h66.283c.882 0 1.596.714 1.596 1.596v.146c0 .882-.714 1.596-1.596 1.596M484.05 178.557h-66.283c-.881 0-1.596-.715-1.596-1.597v-.146c0-.88.715-1.596 1.596-1.596h66.283c.882 0 1.596.715 1.596 1.596v.146c0 .882-.714 1.597-1.596 1.597" mask="url(#nga0ji8onb)"/>
                <path fill="#363638" d="M222.042 215.671h274.086v22.471c0 .783-.638 1.421-1.424 1.421H223.466c-.786 0-1.424-.638-1.424-1.42V215.67z" mask="url(#nga0ji8onb)"/>
                <path fill="#FFF" d="M476.476 224.528v-2.025h2.534V220.7h-3.435c-.498 0-.901.403-.901.9v2.928h1.803zM476.476 228.132h-1.803v3.081c0 .498.404.901.902.901h3.435v-1.802h-2.534v-2.18zM484.286 224.528h1.803V221.6c0-.498-.404-.901-.902-.901h-3.303v1.803h2.402v2.025zM484.286 228.132v2.18h-2.402v1.802h3.303c.498 0 .902-.403.902-.901v-3.081h-1.803z" mask="url(#nga0ji8onb)"/>
                <path fill="#CDD4E7" d="M222.042 215.672L496.128 215.672 496.128 211.179 222.042 211.179z" mask="url(#nga0ji8onb)"/>
                <path fill="#363638" d="M241.954 90.405L245.046 90.405 245.046 97.179 249.186 97.179 249.186 99.576 241.954 99.576zM250.037 99.576L253.129 99.576 253.129 90.405 250.037 90.405zM264.423 90.405L260.545 99.576 257.505 99.576 253.627 90.405 256.955 90.405 259.143 95.764 261.383 90.405zM272.349 97.244L272.349 99.576 264.724 99.576 264.724 90.405 272.178 90.405 272.178 92.737 267.762 92.737 267.762 93.811 271.64 93.811 271.64 96.038 267.762 96.038 267.762 97.244z" mask="url(#nga0ji8onb)"/>
                <path fill="#FE615B" d="M236.863 94.917c0 2.083-1.688 3.77-3.77 3.77-2.084 0-3.772-1.687-3.772-3.77s1.688-3.771 3.771-3.771 3.771 1.688 3.771 3.77M460.413 195.946c0 1.83-1.483 3.314-3.313 3.314-1.829 0-3.312-1.484-3.312-3.314 0-1.828 1.483-3.313 3.312-3.313 1.83 0 3.313 1.484 3.313 3.313M463.293 204.33h-12.385s1.407-3.936 6.099-3.936c.034 0 .063.003.094.003.03 0 .059-.003.093-.003 4.692 0 6.099 3.935 6.099 3.935" mask="url(#nga0ji8onb)"/>
                <path fill="#363638" d="M474.717 193.942L474.717 196.02 471.379 203.971 467.683 203.971 470.863 196.564 468.929 196.564 468.929 198.025 466.135 198.025 466.135 193.942zM483.513 201.349v2.622h-8.038v-2.078l3.625-3.352c.688-.645.788-1.032.788-1.376 0-.487-.33-.788-.974-.788-.602 0-1.174.33-1.476.93l-2.55-1.273c.73-1.376 2.178-2.321 4.34-2.321 2.38 0 4.056 1.232 4.056 3.137 0 .989-.258 1.877-1.72 3.195l-1.432 1.304h3.38z" mask="url(#nga0ji8onb)"/>
                <path fill="#FF9C79" d="M433.617 122.683s2.468 7.944 8.658 8.565c5 .5 8.91-4.78 10.231-6.829.315-.49.481-.795.481-.795s.365-.013.901-.096c1.26-.192 3.464-.763 4.125-2.435.943-2.384-3.819-3.258-3.819-3.258s2.043-2.409 1.247-3.843c-.784-1.41-3.957-1.284-3.957-1.284s3.065-2.658 1.67-4.41c-2.097-2.633-5.143 1.011-5.396 1.224.184-.283 8.042-12.224 5.538-12.703-2.185-.419-9.408 9.22-11.339 11.86-.308.418-.479.66-.479.66s-.15-.084-.41-.209c-1.233-.597-4.977-2.135-6.927.015-2.355 2.6-.524 13.538-.524 13.538" mask="url(#nga0ji8onb)"/>
                <path fill="#F06A3F" d="M448.877 119.293c-.94.75-1.72 1.695-1.9 2.563-.116.559.017 1.052.386 1.423.255.256.655.456 1.135.61 1.197.39 2.883.502 4.007.53.317-.491.48-.795.48-.795s.369-.011.906-.095c-.077-.046-.167-.07-.261-.066-1.787.04-4.886-.155-5.588-.862-.09-.093-.188-.241-.126-.552.199-.953 1.74-2.395 3.166-2.964.23-.091.353-.335.286-.57-.062-.24-.296-.39-.536-.35-1.172.186-4.431.436-5.453-.59-.148-.15-.13-.245-.117-.295.047-.225.286-.487.629-.758.698-.55 1.832-1.124 2.667-1.45.096-.04.173-.101.223-.181.086-.127.109-.29.049-.44-.096-.247-.374-.37-.623-.273-.373.146-1.684.684-2.686 1.42-.366.269-.691.564-.912.876-.142.197-.243.402-.29.61-.06.297-.044.74.379 1.168.906.906 2.722 1.075 4.179 1.04" mask="url(#nga0ji8onb)"/>
                <path fill="#F06A3F" d="M444.23 112.324c.142.136.188.344.112.525-.244.577-.369 1.12-.31 1.514.048.31.19.417.308.473.194.09.483.12.834.107.873-.035 2.133-.348 3.261-.707-.05.08-.127.143-.224.182-.835.325-1.967.9-2.666 1.449-.114.012-.227.019-.336.023-.349.013-.673-.007-.945-.071-.12-.03-.229-.066-.329-.114-.476-.222-.769-.64-.852-1.202-.086-.594.071-1.314.375-2.034.128-.306.52-.385.76-.156.003.004.007.008.011.01" mask="url(#nga0ji8onb)"/>
                <path fill="#F06A3F" d="M435.652 113.924c.101.068 1.668 1.094 3.411 1.659.966.314 1.987.486 2.843.274.705-.175 1.238-.582 1.584-1.211 1.224-2.234-.435-4.697-1.533-5.967-.308.418-.479.66-.479.66s-.15-.084-.41-.208c.94 1.041 2.573 3.243 1.58 5.052-.212.391-.53.633-.972.742-1.652.41-4.527-1.161-5.495-1.8-.22-.148-.519-.088-.665.134-.146.22-.084.518.136.665M440.563 126.803c.157.051.337.02.47-.099.196-.177.213-.48.036-.678-.953-1.063-1.363-2.227-1.22-3.458.364-3.155 4.143-5.829 4.181-5.856.217-.152.27-.45.118-.668-.152-.218-.45-.27-.669-.119-.17.12-4.17 2.954-4.585 6.533-.175 1.515.316 2.931 1.46 4.208.06.066.131.112.21.137" mask="url(#nga0ji8onb)"/>
                <path fill="#00B770" d="M380.759 87.43l4.87 12.324c.73 2.062 1.47 4.12 2.22 6.166.742 2.05 1.486 4.094 2.247 6.122.766 2.026 1.519 4.046 2.294 6.04.772 1.991 1.566 3.96 2.369 5.87.792 1.908 1.609 3.781 2.419 5.446.4.826.806 1.601 1.146 2.206l.23.398.094.16c.019.036.019.045.028.07.028.078.044.132.05.175.014.084-.016.127.018.204.03.077.147.183.404.296.509.226 1.607.393 2.99.327 1.387-.06 3.027-.339 4.737-.775 1.713-.444 3.519-1.01 5.336-1.698 3.642-1.382 7.37-3.13 11.05-5.086 3.69-1.945 6.4-3.519 9.986-5.765 1.146 5.321 4.913 9.62 10.365 11.67-3.493 3.18-7.15 6.134-11.004 8.944-3.87 2.788-7.926 5.432-12.397 7.762-2.24 1.162-4.573 2.271-7.1 3.217-2.526.947-5.224 1.78-8.262 2.303-1.52.258-3.127.443-4.847.468-1.717.025-3.548-.093-5.47-.463-1.917-.37-3.927-.999-5.87-1.964-1.943-.953-3.793-2.24-5.368-3.72-.79-.739-1.514-1.52-2.17-2.325l-.47-.6-.388-.523c-.134-.18-.24-.335-.36-.503-.112-.163-.237-.336-.338-.49-.863-1.273-1.567-2.434-2.227-3.569-1.307-2.26-2.423-4.408-3.497-6.549-1.062-2.14-2.047-4.263-3.013-6.378-.961-2.114-1.894-4.222-2.783-6.338-.893-2.113-1.772-4.223-2.627-6.336-.845-2.117-1.675-4.234-2.493-6.354-.805-2.124-1.603-4.248-2.376-6.382l-1.147-3.21-.557-1.616c-.19-.546-.366-1.069-.56-1.652l22.47-7.872z" mask="url(#nga0ji8onb)"/>
                <path fill="#007D55" d="M394.019 138.686c.186 0 .37-.085.491-.246.024-.031 2.367-3.138 4.413-4.601.277-.197.341-.581.144-.857-.197-.276-.582-.34-.858-.143-2.202 1.574-4.582 4.73-4.682 4.864-.203.27-.149.656.124.86.11.083.238.123.368.123" mask="url(#nga0ji8onb)"/>
                <path fill="#007D55" d="M398.197 139.3c.044 0 .09-.005.134-.014.331-.073.54-.403.467-.733-.006-.026-.573-2.644-.009-4.615.094-.326-.096-.666-.422-.76-.326-.094-.666.096-.76.423-.65 2.274-.035 5.099-.009 5.219.064.286.318.48.6.48" mask="url(#nga0ji8onb)"/>
                <path fill="#363638" d="M392.491 204.965c-11.377 6.55-38.888 9.925-56.832 2.797-6.584-2.614-7.737-4.221-7.239-16.04.018-.44.038-.88.061-1.318.05-.93.11-1.858.176-2.78.033-.444.068-.89.105-1.33.134-1.65.294-3.266.467-4.82.048-.43.097-.852.145-1.272.412-3.463 1.065-6.573 1.671-8.976.11-.435.218-.846.322-1.233.636-2.36 1.152-3.777 1.152-3.777 2.894.466 5.874.74 8.87.86.425.018.847.033 1.271.043 15.52.41 31.311-3.105 38.63-5.007.442-.114.851-.224 1.227-.325 1.903-.511 2.976-.844 2.976-.844s.671 1.174 1.614 3.112c.173.359.357.743.545 1.15 1.49 3.196 3.392 7.839 4.473 12.678l.041.178c.091.417.182.837.271 1.259l.054.254c.742 3.512 1.42 7.197 1.88 10.719v.002c.06.453.113.903.167 1.348.897 7.728 1.032 11.55-2.047 13.322" mask="url(#nga0ji8onb)"/>
                <path fill="#575759" d="M392.491 179.574c-.028-.013-.056-.028-.084-.043-2.314-1.26-4.35-3.166-6.103-5.696-.237-.344-.468-.7-.697-1.07h-.003c-1.764-2.857-3.206-6.414-4.314-10.653.442-.115.851-.224 1.227-.326 1.091 4.176 2.508 7.657 4.24 10.419.226.369.465.724.707 1.068 1.373 1.955 2.93 3.496 4.661 4.61l.041.178c.091.417.182.836.271 1.259l.054.254M342.66 167.119c-.502 4.458-1.494 8.23-2.961 11.3-.194.405-.394.797-.608 1.175-1.198 2.172-2.668 3.942-4.402 5.299-2.123 1.663-4.282 2.414-6.032 2.732.034-.445.069-.89.105-1.33 1.533-.321 3.374-1.01 5.167-2.421 1.495-1.175 2.777-2.688 3.847-4.531.219-.377.43-.766.628-1.168 1.478-2.967 2.474-6.675 2.986-11.1.424.019.846.034 1.27.044" mask="url(#nga0ji8onb)"/>
                <path fill="#575759" d="M387.652 165.204c-.878.386-1.82.788-2.828 1.195-.389.158-.788.318-1.197.475-5.857 2.287-13.529 4.64-21.809 5.491-.317.03-.635.063-.953.091-7.512.686-15.158.371-21.457-.218-.45-.044-.895-.085-1.333-.133-2.659-.272-5.045-.585-7.03-.88.11-.435.218-.846.322-1.233 2.037.3 4.491.621 7.227.895.433.041.87.084 1.312.125 6.424.582 14.208.872 21.783.09 8.078-.836 15.572-3.116 21.32-5.347h.002c.407-.157.801-.315 1.188-.472 1.037-.417 2.01-.832 2.908-1.228.173.358.357.742.545 1.15" mask="url(#nga0ji8onb)"/>
                <path fill="#363638" d="M405.325 259.024c-1.66-25.66-5.433-49.448-10.955-68.73l-30.51 14.208c.945 23.355 5.643 39.533 11.04 54.522h30.425z" mask="url(#nga0ji8onb)"/>
                <path fill="#575759" d="M379.834 259.024c-8.854-25.253-10.404-45.912-10.422-46.176-.025-.348-.331-.613-.68-.588-.35.023-.614.328-.59.677.019.265 1.566 20.85 10.348 46.087h1.344z" mask="url(#nga0ji8onb)"/>
                <path fill="#363638" d="M357.796 259.024c1.882-18.227 4.055-40.615 4.328-49.286l-33.703-18.016s-5.938 20.503-2.044 67.302h31.419z" mask="url(#nga0ji8onb)"/>
                <path fill="#575759" d="M354.708 259.024l5.653-46.68c.048-.394-.234-.755-.631-.802-.396-.05-.755.234-.803.63l-5.674 46.852h1.455zM365.056 205.6c.042.346.356.594.702.556h.006c.348-.043.597-.36.555-.708-.284-2.369-.554-4.797-.812-7.225-.046-.427-.091-.854-.134-1.282-.825-7.937-1.493-15.754-1.934-21.277l-.103-1.296c-.094-1.213-.177-2.289-.246-3.2-.427.005-.854.007-1.276.006.069.91.152 1.996.249 3.221.03.417.067.85.102 1.297.439 5.475 1.099 13.223 1.916 21.113l.134 1.307c.268 2.516.548 5.036.84 7.488" mask="url(#nga0ji8onb)"/>
                <path fill="#575759" d="M361.88 197.62c.212.063 1.16.335 2.335.492.41.056.848.097 1.292.111.405.011.813.001 1.213-.044.765-.086 1.484-.295 2.045-.703.698-.508 1.077-1.28 1.093-2.229.049-2.5-.673-12.668-1.217-19.853l-.096-1.292-.24-3.082c-.422.02-.847.04-1.273.054.07.893.153 1.95.24 3.115l.099 1.291c.539 7.17 1.263 17.32 1.215 19.744-.01.56-.19.947-.571 1.226-.608.441-1.614.545-2.642.491-.437-.023-.878-.073-1.292-.136-.758-.118-1.43-.283-1.837-.403-.336-.1-.69.09-.791.426-.1.337.09.691.427.792" mask="url(#nga0ji8onb)"/>
                <path fill="#363638" d="M323.48 97.777l48.638-1.253c-1.508-2.113-1.369-22.268-2.043-26.43-.696-4.296-.159-12.815.484-19.77 1.236-13.363-9.607-24.81-23.01-24.152-.202.01-.404.021-.609.034-20.446 1.302-21.95 18.82-20.047 29.427 1.734 9.661 2.953 35.986-3.413 42.144" mask="url(#nga0ji8onb)"/>
                <path fill="#FFF" d="M334.036 160.947l3.922 16.446c9.798-.782 21.39-2.2 30.12-6.713 0 0 11.632 3.912 17.529 2.086l-4.317-11.819h-47.254z" mask="url(#nga0ji8onb)"/>
                <path fill="#00B770" d="M391.607 173.12c-11.297-.074-18.08-1.54-24.244-6.584-11.556 12.009-40.107 12.468-40.107 12.468 2.858-9.224 3.79-25.527 3.79-25.527-.229-1.695-.348-3.455-.527-5.24-.179-1.783-.417-3.59-.88-5.372-2.818-8.133-6.115-13.964-9.046-22.366-.189-.546-.383-1.086-.578-1.632-.127-.355-.256-.708-.388-1.063-.964-2.628-1.999-5.248-3.084-7.772-4.728-11.014-5.489-23.428 5.88-27.216.827-.275 1.64-.54 2.433-.791 5.378-1.7 9.858-2.817 11.107-3.117l.343-.083 23.868 1.977 2.27.189c3.336.373 6.87.277 9.104.77 1.965.433 3.155.326 5.155.917 4.704 1.392 4.571 7.715 6.033 15.575.023.135.05.27.072.41.011.04.022.09.03.132.255 1.337.562 2.659.906 3.965.386 1.462.816 2.905 1.267 4.313 2.752 8.632 6.07 12.594 5.505 18.027-.515 4.918-5.533 11.627-6.865 13.058-.309.329-.49.505-.49.505l.01.076c.02.194.041.402.071.619.1.829.246 1.814.43 2.929.412 4.154.998 7.917 1.664 11.27.36 1.807.743 3.496 1.14 5.062 2.381 9.472 5.131 14.502 5.131 14.502" mask="url(#nga0ji8onb)"/>
                <path fill="#007D55" d="M386.476 158.618c-3.226 1.713-5.839 2.851-5.839 2.851l-2.41-4.536c2.31-.826 4.782-2.06 7.109-3.376.526 1.406 1.018 2.832 1.14 5.061M334.396 154.362s10.862 4.609 18.897 5.388l-1.227 4.988s-13.167-2.174-18.444-5.926l.774-4.45zM385.11 137.434c.161 0 .323-.064.444-.191.295-.31 7.19-7.667 4.786-14.382-.668-1.865-1.444-3.75-2.267-5.744-2.496-6.056-5.327-12.92-6.053-21.822-.028-.34-.326-.591-.663-.563-.338.028-.59.325-.562.663.742 9.094 3.611 16.052 6.142 22.19.817 1.982 1.59 3.853 2.246 5.69 2.148 6-4.453 13.05-4.52 13.12-.234.247-.223.636.022.87.12.113.272.169.424.169M365.057 111.201c0 .74-.602 1.34-1.34 1.34-.74 0-1.34-.6-1.34-1.34 0-.74.6-1.34 1.34-1.34.738 0 1.34.6 1.34 1.34M367.048 123.068c0 .74-.6 1.34-1.34 1.34-.74 0-1.34-.6-1.34-1.34 0-.74.6-1.34 1.34-1.34.74 0 1.34.6 1.34 1.34M368.247 135.13c0 .74-.6 1.34-1.34 1.34-.74 0-1.34-.6-1.34-1.34 0-.74.6-1.34 1.34-1.34.74 0 1.34.6 1.34 1.34M368.762 147.538c0 .74-.6 1.339-1.34 1.339-.74 0-1.34-.6-1.34-1.34 0-.74.6-1.34 1.34-1.34.74 0 1.34.6 1.34 1.34M368.702 160.443c0 .74-.6 1.34-1.34 1.34-.74 0-1.34-.6-1.34-1.34 0-.74.6-1.34 1.34-1.34.74 0 1.34.6 1.34 1.34M357.433 80.776s5.185-.468 8.817.496l-.394 13.616-3.099.666 2.611 2.568-3.13 9.136s-4.276-15.202-4.805-26.482" mask="url(#nga0ji8onb)"/>
                <path fill="#007D55" d="M336.307 78.824l-9.486 2.594 11.136 14.802 8.35-.666-2.928 6.385 18.86 5.319s-21.842-20.742-23.59-28.24l-2.342-.194z" mask="url(#nga0ji8onb)"/>
                <path fill="#FFF" d="M337.958 79.933s5.447 11.599 24.28 27.325c0 0-1.01-12.37-4.798-25.63 0 0-11.083 3.86-19.482-1.695" mask="url(#nga0ji8onb)"/>
                <path fill="#007D55" d="M364.866 116.969c-6.203 0-18.859-8.884-19.395-9.262-.23-.162-.285-.48-.123-.71.163-.23.48-.284.71-.123.13.092 12.927 9.076 18.808 9.076 5.627 0 6.874-6.147 6.886-6.209.053-.275.32-.459.596-.403.277.053.457.32.405.596-.014.07-1.428 7.035-7.887 7.035" mask="url(#nga0ji8onb)"/>
                <path fill="#FF9C79" d="M357.433 80.776l.255 3.215c.475 5.99-3.786 7.69-9.99 4.516-4.9-2.508-9.058-6.255-9.74-8.574l19.474.843z" mask="url(#nga0ji8onb)"/>
                <path fill="#007D55" d="M348.548 141.965c.102.177.287.275.48.275.093 0 .187-.022.272-.07.091-.053 9.051-5.101 19.991-2.965 5.557 1.084 10.282.974 13.951.153-.027-.216-.052-.423-.07-.619l-.01-.077s.182-.175.487-.504c-3.587.912-8.388 1.088-14.146-.035-11.356-2.216-20.374 2.874-20.75 3.091-.265.151-.356.487-.205.751" mask="url(#nga0ji8onb)"/>
                <path fill="#363638" d="M367.665 40.784s2.754 10.809.989 12.694c-1.763 1.885-4.37-2.162-4.37-2.162s1.284-10.098 3.38-10.532" mask="url(#nga0ji8onb)"/>
                <path fill="#F06A3F" d="M364.629 55.095s2.847-3.362 4.455 0c1.608 3.363.37 10.169-3.96 9.055l-.495-9.055z" mask="url(#nga0ji8onb)"/>
                <path fill="#FFF" d="M362.133 63.462c-1.584.738-2.684 2.344-2.684 4.203 0 2.556 2.08 4.636 4.637 4.636 2.558 0 4.636-2.08 4.636-4.636 0-1.836-1.072-3.426-2.624-4.176-.532-.257-1.118-.416-1.737-.452-.112-.286-.207-.578-.33-.86l.055-.001c.76 0 1.485.156 2.143.437 1.965.835 3.345 2.786 3.345 5.052 0 3.026-2.462 5.488-5.488 5.488-3.026 0-5.49-2.462-5.49-5.488 0-2.038 1.118-3.82 2.772-4.766l.765.563z" mask="url(#nga0ji8onb)"/>
                <path fill="#FF9C79" d="M357.44 72.354v9.274s-4.89 8.007-19.482-1.695c2.764-3.086 2.848-9.05 1.731-12.607 0 0 1.067.72 2.836 1.508.362.163.75.332 1.163.505 3.648 1.532 9.135 3.373 13.752 3.015" mask="url(#nga0ji8onb)"/>
                <path fill="#363638" d="M357.44 72.354v4.34c-3.967-.882-10.923-3.046-14.915-7.86.362.163.75.332 1.163.505 3.648 1.532 9.135 3.373 13.752 3.015" mask="url(#nga0ji8onb)"/>
                <path fill="#FF9C79" d="M365.368 69.32c-7.792 8.06-25.084-1.56-25.64-1.871-.009-.005-.014-.01-.014-.01-.16-.72-.304-1.436-.433-2.144-1.1-5.995-1.17-11.564-.56-16.855-.292-5.578 3.03-10.774 8.277-12.688 5.44-1.98 10.315.41 13.247 1.313 4.423 1.364 7.205 7.082 7.23 15.227.032 9.996-.173 15.026-2.107 17.028" mask="url(#nga0ji8onb)"/>
                <path fill="#363638" d="M366.55 42.997c-1.8.248-3.65.444-5.548.592l-1.043-4.98-.336 5.08c-3.498.236-7.133.329-10.858.333l-.464-5.245-1.021 5.243c-2.757-.013-5.558-.068-8.381-.146-2.256-10.447 9.068-15 18.595-12.828 9.528 2.173 9.056 11.95 9.056 11.95" mask="url(#nga0ji8onb)"/>
                <path fill="#363638" d="M346.128 40.782s-3.51 4.68-1.588 9.025c1.922 4.346.585 8.608-.334 11.784 0 0-1.99-6.997-6.678-8.304-4.688-1.307-2.264-14.135 8.6-12.505" mask="url(#nga0ji8onb)"/>
                <path fill="#F06A3F" d="M358.685 64.921c1.027.156 1.86-.12 1.911-.137.175-.059.267-.249.207-.423-.058-.173-.246-.266-.421-.207-.016.006-1.629.53-2.971-.45-.15-.11-.358-.077-.466.071-.108.148-.077.357.072.465.555.405 1.137.6 1.668.681" mask="url(#nga0ji8onb)"/>
                <path fill="#FFF" d="M363.636 59.71s-5.417 1.893-9.49-.793c0 0 1.43 3.665 4.939 4.012 3.509.346 4.55-3.218 4.55-3.218" mask="url(#nga0ji8onb)"/>
                <path fill="#363638" d="M355.005 44.884s1.617.16 1.049 1.642c-.568 1.482-3.812-.151-6.133 2.579 0 0-.987-3.555 5.084-4.221M362.332 44.884s-1.617.16-1.05 1.642c.57 1.482 3.813-.151 6.134 2.579 0 0 .987-3.555-5.084-4.221M354.521 52.291c0 1.036-.47 1.876-1.05 1.876-.579 0-1.05-.84-1.05-1.876s.471-1.876 1.05-1.876c.58 0 1.05.84 1.05 1.876M364.771 52.291c0 1.036-.47 1.876-1.049 1.876-.58 0-1.05-.84-1.05-1.876s.47-1.876 1.05-1.876c.58 0 1.05.84 1.05 1.876M360.75 56.243c.497 0 .833-.083.86-.09.118-.03.215-.107.27-.212.058-.105.067-.23.028-.342l-1.577-4.518c-.078-.223-.32-.34-.543-.262-.223.077-.34.32-.262.543l1.405 4.023c-.428.022-1.092-.024-1.746-.376-.207-.111-.466-.034-.578.173-.112.208-.034.466.173.578.72.387 1.438.483 1.97.483M343.099 63.245c-.05.116-1.412 3.275-3.371 4.203l-.004.002-.01-.01c-.16-.722-.303-1.438-.433-2.146.073-.01 2.051-.356 3.817-2.049" mask="url(#nga0ji8onb)"/>
                <path fill="#FF9C79" d="M341.2 56.05s-4.142-5.564-7.177-1.192c-2.5 3.604 2.209 13.197 7.273 9.692l-.095-8.5z" mask="url(#nga0ji8onb)"/>
                <path fill="#FFF" d="M336.909 64.613c-1.584.738-2.684 2.365-2.684 4.224 0 2.556 2.08 4.636 4.636 4.636 2.558 0 4.636-2.08 4.636-4.636 0-1.837-1.072-3.426-2.624-4.176-.532-.257-1.118-.416-1.737-.452-.111-.286-.206-.578-.33-.859l.055-.002c.76 0 1.485.155 2.143.436 1.965.836 3.346 2.787 3.346 5.053 0 3.026-2.462 5.488-5.49 5.488-3.025 0-5.488-2.462-5.488-5.488 0-2.038 1.15-3.854 2.805-4.801.236.212.478.413.732.577" mask="url(#nga0ji8onb)"/>
                <path fill="#363638" d="M340.634 62.96c.016 0 .031-.002.047-.004.234-.025.403-.236.377-.47-.517-4.732-4.5-6.37-4.669-6.439-.219-.088-.467.02-.554.24-.087.217.02.465.238.552.156.063 3.677 1.532 4.138 5.74.024.218.208.38.423.38" mask="url(#nga0ji8onb)"/>
                <path fill="#363638" d="M336.657 60.375c.094 0 .189-.03.269-.096.37-.3 1.494-1.038 2.229-.85.229.058.46-.079.519-.307.058-.228-.08-.46-.308-.519-1.281-.328-2.808.876-2.98 1.015-.181.15-.208.417-.06.6.084.103.207.157.33.157" mask="url(#nga0ji8onb)"/>
                <path fill="#007D55" d="M308.361 144.126s1.361 2.935-.21 9.354c-1.57 6.42-4.203 10.44-4.203 10.44s-6.58-9.99 4.413-19.794" mask="url(#nga0ji8onb)"/>
                <path fill="#FF9C79" d="M279.326 137.99c.016.325.039.647.068.966.04.317.086.632.139.946.027.154.052.315.086.465l.106.453c.284 1.22.718 2.307 1.198 3.308.244.478.506.968.775 1.388.137.213.272.434.413.64l.422.59c1.143 1.55 2.347 2.706 3.524 3.7 1.179.99 2.348 1.799 3.49 2.532.573.368 1.143.703 1.708 1.03.565.328 1.124.634 1.683.932 1.12.584 2.22 1.127 3.322 1.628 2.199 1.005 4.382 1.856 6.559 2.63 2.174.77 4.346 1.457 6.512 2.086 2.167.639 4.332 1.22 6.5 1.75 2.17.536 4.345 1.016 6.527 1.476.794.164 1.875.27 3.017.356 1.743.135 3.63.228 4.868.437.297-1.798-1.222-3.251-.922-5.05.35-2.101.7-4.207 1.083-6.307l-.871-1.878c-1.32-.315-2.645-.656-3.967-1.015l-.12-.033c-1.927-.524-3.842-1.1-5.74-1.717-1.933-.624-3.85-1.288-5.734-1.995-1.88-.713-3.724-1.474-5.514-2.28-1.784-.808-3.518-1.66-5.131-2.568-.803-.453-1.588-.914-2.311-1.404-.358-.242-.715-.483-1.048-.732-.334-.247-.654-.5-.951-.752-.463-.384-.877-.78-1.215-1.153-.101-.108-.193-.214-.277-.316l-.015-.017.31-.426.555-.76c.288-.396.572-.794.887-1.2.617-.805 1.219-1.607 1.848-2.416l1.909-2.423c1.3-1.613 2.587-3.24 3.916-4.854l.99-1.214 1.006-1.21 1.406-1.7.598-.724.73-.876 1.286-1.548 2.036-2.416c1.353-1.614 2.71-3.225 4.08-4.833l8.165-9.637.052-.061c3.442-4.063 2.939-10.147-1.122-13.59-4.026-3.413-10.043-2.942-13.503 1.018l-2.143 2.462-2.103 2.457c-.7.82-1.392 1.646-2.083 2.472-.692.824-1.387 1.65-2.072 2.484-1.374 1.66-2.74 3.333-4.1 5.007l-2.027 2.528-.268.339-1.748 2.205c-.674.846-1.341 1.706-2.004 2.563l-.996 1.288-.447.588-.544.714c-1.32 1.725-2.633 3.48-3.933 5.249l-1.937 2.69c-.644.905-1.282 1.837-1.921 2.756-.32.45-.638.934-.956 1.415l-.95 1.436-.24.36-.06.09-.03.046-.046.074-.198.322c-.131.215-.258.433-.387.649-.064.105-.126.227-.187.346l-.184.356c-.121.24-.242.472-.355.724-.111.259-.22.522-.325.785l-.154.395c-.048.135-.096.279-.143.42-.091.28-.18.566-.263.85-.081.293-.145.6-.211.9-.064.305-.13.603-.17.925-.041.315-.082.63-.112.946-.03.319-.038.644-.048.967l-.006.482c0 .162.012.323.018.485" mask="url(#nga0ji8onb)"/>
                <path fill="#000" d="M321.498 149.87s-1.565-1.522-3.484-1.125c0 0-4.536 7.693-2.184 14.29 0 0 1.055.95 3.26.766 0 0-2.196-7.933 2.408-13.93" mask="url(#nga0ji8onb)"/>
                <path fill="#000" d="M312.688 156.585c.142 2.528 2.306 4.463 4.834 4.322 2.528-.141 4.463-2.306 4.322-4.834-.14-2.53-2.306-4.464-4.834-4.322-2.528.142-4.464 2.306-4.322 4.834" mask="url(#nga0ji8onb)"/>
                <path fill="#FFF" d="M317.458 159.752c1.888-.105 3.337-1.728 3.232-3.615-.106-1.887-1.728-3.338-3.615-3.232-1.888.106-3.337 1.727-3.232 3.615.106 1.888 1.727 3.337 3.615 3.232" mask="url(#nga0ji8onb)"/>
                <path fill="#F06A3F" d="M325.361 164.63c1.743.133 3.631.227 4.868.436.298-1.798-1.222-3.25-.922-5.049.35-2.102.7-4.209 1.083-6.308l-.872-1.878c-1.319-.316-2.644-.656-3.966-1.015-.04-.012-.08-.02-.12-.033-.537 2.988-1.382 9.252-.07 13.846" mask="url(#nga0ji8onb)"/>
                <path fill="#00B770" d="M329.633 92.95c.928 3.004.22 6.276-1.84 8.653-3.864 4.46-11.243 13.078-15.333 18.49-5.715 7.562-12.944 17.049-12.944 17.049s5.2 4.57 8.845 6.984c0 0-8.92 7.539-4.413 19.795 0 0-16.026-8.807-24.139-17.271-5.924-6.18-4.28-13.893 1.131-21.27 2.731-3.721 23.797-27.728 31.277-36.124 2.762-3.1 7.12-4.343 11.043-2.99 2.508.867 5.156 2.744 6.373 6.685" mask="url(#nga0ji8onb)"/>
                <path fill="#FF9C79" d="M325.73 153.065s.629-3.665 1.578-7.19c.79-2.94 2.39-3.85 2.39-3.85.347 2 .838 3.207.905 6.85 0 0 .887-.825 2.507-.498 1.62.326 7.204 1.51 7.276 2.8.164 2.949-6.833 1.548-6.833 1.548s7.488 1.41 7.299 3.477c-.153 1.672-6.934 1.989-6.934 1.989s6.535.06 5.75 2.406c-.833 2.493-6.895.923-6.895.923s4.367 2.096 3.945 2.976c-.607 1.267-3.195 1.624-7.38.604-4.282-1.044-3.608-12.035-3.608-12.035" mask="url(#nga0ji8onb)"/>
                <path fill="#007D55" d="M318.01 114.698c-.16.024-.328-.017-.46-.129-.245-.206-.276-.571-.07-.815l9.678-11.489c.206-.244.57-.275.815-.069.245.206.275.57.07.814l-9.68 11.489c-.093.112-.22.179-.353.199" mask="url(#nga0ji8onb)"/>
                <path fill="#007D55" d="M328.532 106.182l-3.66.561c-.314.048-.61-.168-.657-.484-.05-.316.168-.61.483-.659l3.659-.56c.315-.049.61.167.658.483.049.316-.168.611-.483.66M289.145 139.63c.06.08.143.129.232.146.101.019.207-.002.295-.07 2.76-2.05 7.67-2.267 10.101-2.237-.099-.108-.19-.214-.276-.316l-.015-.017.31-.426c-.22-.003-.46-.005-.718-.003-1.525-1.463-5.624-2.882-5.802-2.943-.197-.068-.412.035-.478.233-.068.197.036.41.233.478.038.013 3.16 1.094 4.876 2.26-2.676.118-6.336.625-8.68 2.368-.168.125-.203.36-.078.528" mask="url(#nga0ji8onb)"/>
                <path fill="#CDD4E7" d="M262.304 410.664c0 4.292-57.021 7.771-127.361 7.771s-127.361-3.479-127.361-7.77c0-4.294 57.022-7.773 127.36-7.773 70.34 0 127.362 3.48 127.362 7.772" mask="url(#nga0ji8onb)"/>
                <path fill="#FF9C79" d="M153.533 167.786l.158.758.118.607.211 1.151c.13.746.25 1.482.36 2.21.214 1.457.39 2.89.548 4.32.31 2.857.536 5.693.672 8.528.127 2.834.172 5.664.14 8.492-.042 2.828-.16 5.653-.35 8.474-.199 2.821-.49 5.637-.845 8.446-.2 1.403-.375 2.807-.612 4.205-.115.701-.22 1.401-.345 2.1l-.386 2.092c-.124.697-.277 1.391-.42 2.087-.149.694-.283 1.39-.446 2.083-.324 1.384-.63 2.77-.998 4.145-.18.69-.348 1.378-.538 2.065l-.58 2.054-.146.514-.073.257-.155.524c-.146.49-.302.91-.467 1.344-.16.402-.334.814-.504 1.171-.175.38-.346.706-.526 1.048l-.264.474c-.09.16-.179.312-.266.455l-.267.435-.265.406c-.18.278-.35.516-.529.771-.702.978-1.386 1.8-2.057 2.548-.669.746-1.324 1.411-1.969 2.031-1.289 1.234-2.539 2.292-3.774 3.275-2.465 1.955-4.874 3.61-7.28 5.152-4.805 3.072-9.57 5.72-14.373 8.21-4.793 2.49-9.609 4.79-14.453 6.99-2.426 1.092-4.857 2.158-7.299 3.203-1.22.522-2.443 1.042-3.675 1.55l-1.855.754-1.912.764-8.38-18.939 1.625-.832 1.671-.867 3.353-1.747c2.233-1.175 4.456-2.37 6.663-3.585 4.421-2.415 8.785-4.898 13.036-7.443 2.124-1.273 4.21-2.579 6.251-3.89 2.04-1.315 4.027-2.654 5.91-4.015 1.875-1.359 3.664-2.743 5.191-4.082.76-.666 1.45-1.325 1.998-1.912.543-.577.948-1.118 1.031-1.298.001-.014.02-.038.01-.036l-.004-.002c-.008.005-.014.012-.019.018l-.026.033c-.012.016-.019.03-.032.05-.035.05-.054.091-.1.174-.03.066-.087.175-.126.278-.057.13-.097.25-.157.424l-.037.125c-.01.038 0 .001.002-.013l.012-.054.05-.213.096-.426.392-1.702c.128-.568.236-1.142.356-1.713.246-1.138.438-2.293.65-3.439.106-.574.185-1.154.28-1.73.088-.578.188-1.153.26-1.734.337-2.314.597-4.644.815-6.977.2-2.335.333-4.679.43-7.024.081-2.348.1-4.697.06-7.044-.03-2.348-.126-4.693-.288-7.026-.152-2.332-.363-4.655-.645-6.938-.14-1.139-.296-2.274-.474-3.375-.084-.55-.172-1.093-.263-1.62l-.138-.76-.106-.537 26.075-5.822z" mask="url(#nga0ji8onb)"/>
                <path fill="#C52B4B" d="M125.666 174.244l-4.764 36.102c7.11 3.982 13.854 6.833 20.046 7.96l-15.282-44.062z" mask="url(#nga0ji8onb)"/>
                <path fill="#F06A3F" d="M135.773 230.045c-.103 0-.206-.024-.302-.077-3.699-2.015-8.789-3.702-8.84-3.719-.333-.109-.513-.468-.403-.8.11-.332.465-.513.8-.403.212.07 5.25 1.74 9.048 3.81.308.167.421.551.254.86-.115.21-.332.33-.557.33" mask="url(#nga0ji8onb)"/>
                <path fill="#F06A3F" d="M127.18 226.403c-.317 0-.591-.24-.627-.563-.04-.348.21-.662.559-.701 2.627-.293 6.076-.31 6.222-.31h.003c.348 0 .632.282.633.63.002.35-.281.635-.631.636-.035 0-3.53.019-6.087.304-.024.002-.048.004-.071.004" mask="url(#nga0ji8onb)"/>
                <path fill="#FF9C79" d="M58.709 374.609L52.145 385.334 39.636 379.797 45.314 368.274z" mask="url(#nga0ji8onb)"/>
                <path fill="#FFB028" d="M.025 385.89l47.309 20.94c.635-.483 1.228-1.305 1.785-2.351 2.067-3.871 3.618-10.822 4.776-15.126.13-.504.26-.972.386-1.392.21-.711.406-1.295.588-1.706 1.454-3.287-1.704-4.011-1.704-4.011-6.865 2.576-9.17-6.864-13.357-5.956 0 0-1.796.374-7.048 2.09-5.25 1.718-12.626 1.12-19.071.989-8.32-.173-11.607 1.877-12.89 3.724-1.015 1.464-.774 2.799-.774 2.799" mask="url(#nga0ji8onb)"/>
                <path fill="#DD7F21" d="M.025 385.89l47.309 20.94c.635-.483 1.228-1.305 1.785-2.351L.799 383.09c-1.015 1.464-.774 2.799-.774 2.799" mask="url(#nga0ji8onb)"/>
                <path fill="#DD7F21" d="M42.507 404.695l1.405.62c-.693-2.223-.917-5.262.81-8.7 2.297-4.572 6.497-6.483 9.172-7.262.132-.505.262-.971.387-1.392-2.81.675-7.906 2.623-10.66 8.1-1.65 3.284-1.656 6.276-1.114 8.634" mask="url(#nga0ji8onb)"/>
                <path fill="#FFF" d="M32.327 381.525c.35.154.773.059 1.018-.258.29-.371.221-.907-.15-1.195l-2.632-2.042c-.37-.29-.907-.222-1.195.15-.29.372-.222.907.15 1.197l2.631 2.042c.056.043.116.079.178.106M36.353 380.365c.35.154.772.058 1.018-.259.288-.371.221-.906-.151-1.195l-2.631-2.043c-.371-.288-.907-.22-1.196.151-.289.371-.221.907.151 1.197l2.63 2.041c.057.044.117.08.179.108M28.611 381.935c.35.154.773.058 1.018-.258.29-.372.221-.907-.15-1.196l-2.632-2.042c-.37-.29-.907-.221-1.195.15-.29.372-.222.908.15 1.197l2.631 2.042c.056.044.116.079.178.107M24.925 382.278c.35.155.773.059 1.018-.258.289-.371.222-.907-.151-1.196l-2.63-2.041c-.372-.29-.908-.222-1.196.15-.29.372-.222.907.15 1.197l2.63 2.042c.057.043.117.079.179.106M21.027 382.378c.35.155.773.06 1.018-.257.289-.372.22-.908-.151-1.196l-2.63-2.042c-.372-.288-.908-.222-1.196.15-.29.372-.222.908.15 1.197l2.63 2.042c.057.044.117.08.179.106M16.956 382.134c.35.155.773.059 1.018-.257.288-.372.221-.908-.151-1.196l-2.63-2.042c-.373-.289-.907-.222-1.197.15-.289.372-.222.908.15 1.197l2.631 2.042c.056.043.116.079.178.106" mask="url(#nga0ji8onb)"/>
                <path fill="#363638" d="M88.083 271.14c4.39-4.321 39.03-13.982 62.028-7.561 2.635 5.072 5.986 17.923-2.254 29.808-30.232 4.94-47.103 15.11-47.103 15.11s-10.72 24.772-17.09 33.865c-6.37 9.09-20.976 37.963-20.976 37.963L40.68 370.92s35.45-88.016 47.402-99.781" mask="url(#nga0ji8onb)"/>
                <path fill="#575759" d="M65.043 374.877c-.081 0-.164-.016-.243-.049l-21.538-8.953c-.323-.135-.477-.505-.342-.828.134-.323.504-.476.828-.342l21.538 8.953c.323.135.476.505.342.828-.101.245-.337.391-.585.391" mask="url(#nga0ji8onb)"/>
                <path fill="#575759" d="M61.422 373.067c-.078 0-.156-.015-.233-.045-.325-.13-.484-.497-.355-.822.044-.112 4.551-11.356 15.062-27.308 10.442-15.844 21.36-42.627 21.47-42.895.131-.324.5-.48.824-.35.324.133.48.502.35.826-.11.27-11.076 27.167-21.586 43.116-10.44 15.845-14.899 26.967-14.943 27.078-.098.249-.337.4-.589.4" mask="url(#nga0ji8onb)"/>
                <path fill="#FF9C79" d="M114.256 376.498L112.594 388.963 98.916 388.963 99.443 376.127z" mask="url(#nga0ji8onb)"/>
                <path fill="#FFB028" d="M65.16 410.568h51.737c.385-.7.595-1.691.68-2.874.324-4.376-1.071-11.36-1.754-15.764-.084-.514-.155-.995-.21-1.428-.096-.737-.154-1.35-.154-1.8 0-3.593-3.181-2.977-3.181-2.977-5.235 5.133-11.163-2.565-14.625-.04 0 0-1.491 1.069-5.598 4.764-4.105 3.695-11.093 6.135-17.04 8.623-7.677 3.209-9.854 6.414-10.28 8.622-.335 1.75.426 2.874.426 2.874" mask="url(#nga0ji8onb)"/>
                <path fill="#DD7F21" d="M65.16 410.568h51.737c.385-.7.595-1.691.68-2.874H64.737c-.336 1.75.425 2.874.425 2.874" mask="url(#nga0ji8onb)"/>
                <path fill="#DD7F21" d="M111.618 410.568h1.537c-1.534-1.753-2.969-4.441-2.78-8.284.25-5.112 3.316-8.56 5.447-10.354-.083-.514-.154-.995-.209-1.428-2.298 1.754-6.169 5.598-6.47 11.72-.179 3.67 1.025 6.409 2.475 8.346" mask="url(#nga0ji8onb)"/>
                <path fill="#FFF" d="M92.932 393.5c.382 0 .73-.259.827-.646.113-.458-.165-.92-.622-1.034l-3.232-.8c-.457-.117-.92.163-1.033.62-.113.457.165.92.622 1.033l3.232.802c.069.017.138.025.206.025M96.143 390.81c.382 0 .73-.26.827-.647.113-.457-.165-.92-.622-1.033l-3.232-.802c-.457-.115-.919.165-1.033.622-.113.457.165.92.622 1.033l3.232.802c.069.017.138.025.206.025M89.7 395.38c.382 0 .73-.26.827-.648.113-.457-.165-.919-.622-1.033l-3.232-.802c-.457-.115-.92.165-1.033.622-.114.457.165.92.622 1.033l3.232.802c.069.017.138.025.206.025M86.468 397.185c.383 0 .73-.26.827-.646.113-.458-.165-.92-.622-1.034l-3.232-.802c-.457-.115-.92.165-1.033.622-.113.457.165.92.622 1.033l3.232.802c.069.017.138.025.206.025M82.944 398.856c.383 0 .73-.26.827-.647.113-.457-.165-.92-.622-1.034l-3.232-.801c-.457-.115-.92.165-1.033.62-.113.458.165.92.622 1.034l3.232.803c.069.016.138.025.206.025M79.123 400.28c.381 0 .73-.26.826-.647.114-.457-.165-.92-.621-1.034l-3.233-.801c-.457-.115-.92.164-1.032.622-.114.457.165.92.621 1.032l3.233.803c.069.017.138.024.206.024" mask="url(#nga0ji8onb)"/>
                <path fill="#FE615B" d="M217.908 273.392c-.02.209-.05.409-.073.603-.105.082-.208.16-.308.235-8.03 6.162-17.4 10.259-26.972 12.588-.335.083-.669.163-1.008.238-1.644.379-3.294.707-4.936.983-2.23.372-4.463.657-6.674.847-1.958.173-3.906.277-5.829.312-8.276.15-16.13-.928-22.77-3.044-.253-.08-.506-.163-.757-.248-1.757-.587-3.422-1.25-4.98-1.981-.242-.11-.48-.22-.71-.34-.97-.472-1.9-.981-2.784-1.513.135-3.192.178-7.01.146-11.094-.003-.338 0-.677-.008-1.018-.055-5.681-.233-11.805-.454-17.412-.015-.265-.025-.526-.029-.792-.124-2.93-.256-5.71-.384-8.183-.018-.263-.028-.53-.043-.78-.11-2.093-.22-3.956-.323-5.488-.025-.39-.048-.774-.08-1.155-.018-.301-.038-.6-.058-.893v-.003c-.08-1.08-.173-2.133-.263-3.174-.139-1.657-.299-3.266-.469-4.834-.196-1.782-.406-3.517-.63-5.194-.245-1.8-.5-3.535-.772-5.213-.293-1.787-.594-3.51-.907-5.162-1.113-5.823-2.364-10.82-3.613-15.135-.09-.296-.173-.584-.26-.875-.507-1.717-1.01-3.312-1.505-4.808-.11-.331-.218-.653-.323-.976-2.776-8.251-5.08-13.23-5.118-16.572-.08-6.95 5-9.181 10.297-11.981.251-.133.502-.261.747-.396.893-.481 1.788-.988 2.655-1.54.366-.228.73-.468 1.083-.724.246-.173.484-.35.715-.52 2.104-1.616 3.943-3.652 5.137-6.528l20.034-4.222s1.921.986 5.127 1.85c.304.083.612.163.94.239.376.088.77.178 1.18.256.252.052.515.1.784.145.2.038.411.075.624.106 1.918.3 4.141.49 6.65.44.25-.004.505-.01.763-.022l.544-.022c1.7-.086 3.322.13 4.877.63h.002c.298.094.594.199.885.32 6.51 2.602 11.625 10.379 14.943 22.325.92 3.322 1.827 6.557 2.707 9.72l.286 1.033.572 2.07.002.004c.073.25.138.499.206.749.682 2.452 1.34 4.869 1.975 7.26v.006l.203.764c.003.003.003.003.003.006l.108.4.363 1.397c2.216 8.554 4.072 16.79 5.258 25.1.245 1.729.466 3.46.654 5.2.048.425.098.896.148 1.42.01.095.02.194.032.29l.058.555c.01.093.02.188.028.283.321 3.147.734 7.512 1.138 12.318.022.253.047.51.065.767.933 11.2 1.76 24.525 1.101 30.383" mask="url(#nga0ji8onb)"/>
                <path fill="#C52B4B" d="M156.953 163.409c8.004-1.687 12.32-11.694 12.505-12.128.123-.291-.013-.627-.304-.75s-.627.012-.75.304c-.044.102-4.435 10.289-12.147 11.539-7.588 1.235-10.612-4.353-10.736-4.591-.147-.28-.49-.39-.773-.242-.28.146-.39.49-.243.77.034.066 3.51 6.564 11.936 5.194.172-.028.344-.061.512-.096M165.066 269.848c7.522-1.585 15.292-5.446 23.058-11.517 10.656-8.331 17.658-17.992 17.728-18.088.184-.257.126-.615-.13-.8-.258-.185-.616-.125-.8.13-.068.096-6.99 9.643-17.524 17.873-9.664 7.548-24.44 15.506-39.964 10.546-.3-.096-.623.07-.72.372-.096.3.07.623.372.718 5.73 1.83 11.771 2.074 17.98.766" mask="url(#nga0ji8onb)"/>
                <path fill="#C52B4B" d="M160.565 264.108l.01-.002c11.712-2.666 18.004-20.347 18.267-21.1.103-.296-.054-.624-.353-.727-.297-.105-.624.053-.729.35-.062.179-6.347 17.835-17.44 20.36-.308.07-.5.377-.43.685.07.305.37.497.675.434M138.934 236.149c1.452-.996 2.819-2.244 3.895-3.648 2.61-3.406 2.962-6.884.986-9.8-.395-.58-.761-1.115-1.105-1.612-4.026-5.878-4.448-6.492-4.095-16.161.111-3.042-.748-5.436-2.547-7.104-1.212-1.125-2.692-1.781-4.109-2.157.09.29.173.58.263.877 1.177.364 2.358.938 3.33 1.84 1.629 1.515 2.403 3.707 2.3 6.517-.363 9.918.16 10.68 4.232 16.62.34.499.704 1.03 1.096 1.61 2.398 3.533.43 7.095-.959 8.905-.928 1.21-2.096 2.309-3.347 3.217v.003c.02.296.043.592.06.893M215.604 229.924c-1.557.905-3.071 1.481-4.513 1.785-3.891.819-7.256-.356-9.426-2.537-2.59-2.61-3.598-7.095-.51-10.615 2.984-3.407 1.7-5.223.078-7.522-1.597-2.263-3.587-5.079-1.52-10.026 1.189-2.853 3.022-4.798 5.44-5.776 1.212-.494 2.443-.694 3.597-.725l.203.765c-1.131.013-2.342.191-3.518.67-2.221.9-3.911 2.708-5.02 5.362-1.905 4.556-.202 6.963 1.442 9.292 1.673 2.366 3.252 4.608-.128 8.464-2.49 2.841-2.296 6.776.477 9.572 2.803 2.823 7.79 3.796 13.313.454.017.18.037.363.057.554.01.093.02.188.028.283M167.542 220.16c5.355-5.187 3.604-9.315 1.754-13.684-1.754-4.148-3.57-8.435-.43-14.559l.198-.382c.6-1.13 1.51-1.96 2.588-2.42.96-.413 2.049-.53 3.164-.3 2.358.484 4.007 2.347 4.205 4.75.225 2.697 1.02 5.653 2.387 8.842 1.082 2.525 2.518 5.19 4.303 7.992 2.547 4 3.022 8.193 1.415 12.468-2.354 6.255-8.987 11.521-14.04 12.995-3.495 1.02-7.304-.43-9.057-3.449-2.061-3.544-.746-8.12 3.513-12.253m-4.175 12.636c1.93 3.316 6.105 4.912 9.933 3.797.582-.17 1.187-.388 1.8-.652 4.909-2.1 10.575-7.048 12.742-12.807 1.672-4.445 1.158-8.99-1.488-13.143-3.918-6.144-6.19-11.847-6.572-16.49-.225-2.748-2.115-4.883-4.81-5.435-2.706-.552-5.29.667-6.58 3.112-.07.13-.138.26-.205.392-3.3 6.44-1.331 11.098.408 15.206 1.823 4.297 3.393 8.013-1.583 12.834-4.53 4.393-5.894 9.321-3.645 13.186M130.133 189.885l.322.974c2.667 1.068 5.127 1.026 7.095.611.997-.21 1.868-.519 2.576-.824 4.887-2.11 8.208-6.636 8.126-9.376-.03-1.031-.547-1.781-1.455-2.112-5.256-1.915-7.404-5.39-8.2-13.28-.217-2.142-1.07-3.804-2.536-4.946-.249.135-.498.265-.748.396.065.045.125.091.19.136 1.346 1.006 2.133 2.518 2.333 4.488.833 8.245 3.11 11.889 8.7 13.925.62.227.932.688.952 1.413.073 2.493-3.19 6.722-7.666 8.656-2.084.899-5.668 1.791-9.689-.061M158.579 174.433c1.061-2.108 3.009-3.618 5.201-4.08.258-.054.519-.094.779-.117 2.077-.196 3.55.54 4.371 2.176.996 1.99-.138 3.032-1.706 4.474-1.737 1.602-3.9 3.591-2.826 7.523.811 2.98.049 5.453-2.04 6.607-1.571.874-3.513.71-4.514-.378-3.504-3.802-1.409-11.959.735-16.205m-1.298 16.721c.942 1.022 2.465 1.403 3.97 1.086.5-.105.999-.292 1.474-.553 2.421-1.34 3.322-4.135 2.406-7.48-.948-3.482.863-5.147 2.61-6.759 1.535-1.412 3.123-2.873 1.87-5.375-.963-1.923-2.736-2.82-5.123-2.598-2.806.267-5.267 1.987-6.59 4.614-2.237 4.43-4.382 12.983-.617 17.065M146.82 208.121c.24-1.806 1.034-3.436 2.202-4.708 1.167-1.27 2.7-2.18 4.414-2.54.31-.066.623-.113.945-.142 2.194-.193 3.567.493 4.195 2.104.87 2.223-.738 3.916-2.443 5.71-2.12 2.23-4.524 4.761-1.906 8.557 1.731 2.514 2.165 4.556 1.188 5.6-1.09 1.174-3.703.901-6.357-.66-2.44-1.437-3.236-6.379-2.239-13.92m-.79 10.096c.426 2.02 1.24 3.658 2.642 4.482 2.101 1.234 4.163 1.712 5.68 1.393.656-.139 1.212-.427 1.626-.869 1.237-1.33.831-3.72-1.124-6.558-2.265-3.286-.276-5.379 1.831-7.598 1.794-1.886 3.65-3.838 2.607-6.508-.75-1.917-2.472-2.81-4.98-2.586-4.21.376-7.683 3.756-8.25 8.045-.439 3.326-.665 7.192-.032 10.2M139.792 252.548c3.069-1.11 4.099.427 5.595 2.655 1.336 1.992 2.997 4.47 6.73 5.35 1.269.297 2.492.29 3.639.047 3.01-.634 5.466-2.879 6.646-5.402 1.59-3.389.89-6.775-1.837-8.833-1.187-.893-1.814-1.74-1.926-2.586-.16-1.203.742-2.364 1.7-3.59 1.329-1.709 2.837-3.645 1.684-6.117-.907-1.954-2.618-3.115-4.816-3.275-3.661-.267-7.761 2.208-10.452 6.301-2.297 3.5-5.208 5.03-7.42 5.694.015.254.027.517.043.778 2.373-.678 5.54-2.287 8.012-6.05 2.04-3.104 4.906-5.22 7.71-5.812.692-.145 1.379-.2 2.052-.15 1.91.138 3.393 1.144 4.182 2.835.955 2.05-.286 3.64-1.597 5.325-1.013 1.298-2.056 2.641-1.857 4.16.14 1.061.87 2.074 2.225 3.1 2.894 2.181 2.729 5.508 1.609 7.897-1.502 3.2-5.22 5.92-9.421 4.934-3.442-.808-4.945-3.053-6.274-5.028-1.491-2.225-2.794-4.173-6.258-3.026.009.264.018.526.03.793" mask="url(#nga0ji8onb)"/>
                <path fill="#C52B4B" d="M179.424 243.155c-.017-.285-.195-3.608 1.649-5.5.954-.972 2.304-1.412 4.015-1.31 4.19.252 6.09-1.225 8.1-2.791 1.312-1.017 2.666-2.07 4.787-2.775 2.67-.879 4.688.775 5.433 2.685.842 2.143.308 5.103-2.84 6.531-3.04 1.381-5.355 1.052-7.395.755-1.18-.168-2.264-.323-3.302-.105-.866.183-1.701.629-2.52 1.554-1.927 2.184-4.496 3.377-6.244 2.906-.89-.24-1.473-.913-1.683-1.95m-.753.129c.26 1.329 1.057 2.238 2.236 2.56.632.168 1.335.17 2.074.013 1.65-.347 3.458-1.47 4.944-3.15 1.518-1.721 3.038-1.504 5.138-1.2 2.039.291 4.577.657 7.82-.814 3.603-1.637 4.204-5.04 3.239-7.508-.876-2.233-3.246-4.168-6.388-3.127-2.247.743-3.714 1.886-5.015 2.894-1.977 1.54-3.682 2.865-7.585 2.631-1.944-.117-3.496.401-4.608 1.546-2.163 2.214-1.873 5.956-1.86 6.113.003.014.002.026.005.042M212.148 261.682c-2.624 4.337-1.516 9.17 1.079 11.338 1.249 1.043 2.73 1.444 4.299 1.212.105-.077.205-.156.309-.237.026-.193.054-.394.076-.605-1.536.374-2.98.059-4.196-.957-2.343-1.96-3.327-6.37-.914-10.354 2.448-4.042.52-5.29-1.522-6.614-1.875-1.216-3.817-2.471-3.524-6.098.145-1.79.868-3.23 2.157-4.277 1.12-.915 2.547-1.442 3.95-1.738 1.043-.22 2.069-.311 2.948-.344-.02-.257-.042-.513-.065-.766-2.172.076-5.197.526-7.317 2.255-1.455 1.185-2.273 2.8-2.435 4.808-.33 4.082 2 5.589 3.87 6.802 2.016 1.306 3.348 2.169 1.285 5.575M148.583 285.904c.252.087.504.17.758.25.03-1.181.314-3.714 2.06-5.407 1.456-1.416 3.636-1.973 6.475-1.661 3.77.418 5.48 1.98 6.984 3.364 2.533 2.322 4.286 3.423 10.89-.894 2.511-1.644 4.837-2.599 6.87-3.027 3.281-.692 5.803-.014 7.124 1.346 1.624 1.675 1.541 4.317-.195 7.182.34-.076.673-.158 1.01-.24 1.568-2.94 1.493-5.666-.265-7.476-2.35-2.418-8.033-2.957-14.96 1.573-6.432 4.207-7.757 2.988-9.957.975-1.513-1.39-3.398-3.118-7.416-3.563-3.082-.337-5.468.294-7.096 1.878-1.845 1.796-2.224 4.33-2.282 5.7M193.393 270.111c2.619-1.787 2.243-2.901 1.416-4.572-.565-1.145-1.271-2.568-.956-4.959.167-1.263.719-2.219 1.64-2.845 2.248-1.528 6.016-.714 6.409-.622 2.741 1.27 3.781 3.947 3.584 9.214-.133 3.534-1.406 8.058-6.733 9.567-2.647.745-5.701-.793-6.553-2.613-.546-1.168-.134-2.266 1.193-3.17m-1.886 3.49c.959 2.053 4.12 3.743 7.07 3.122.127-.028.257-.059.381-.096 4.502-1.274 7.092-4.92 7.291-10.27.154-4.136-.23-8.2-4.064-9.956-.021-.007-.042-.017-.066-.02-.177-.044-4.415-1.074-7.056.723-1.108.752-1.77 1.89-1.964 3.374-.349 2.623.446 4.231 1.024 5.4.717 1.44 1.043 2.096-1.159 3.603-1.631 1.111-2.16 2.615-1.457 4.12M142.892 283.584c.23.12.469.23.707.34 1.602-1.875 2.262-3.909 1.949-6.043-.5-3.464-3.395-6.357-5.302-7.92.006.341.007.681.01 1.02 1.784 1.566 4.118 4.108 4.537 7.007.28 1.94-.34 3.793-1.835 5.52-.023.024-.044.053-.066.076" mask="url(#nga0ji8onb)"/>
                <path fill="#363638" d="M128.161 117.177s-11.353-2.397-11.615-6.728c-.243-4 4.48-3.576 4.48-3.576s-5.513-9.035-2.35-10.814c3.163-1.778 7.147 3.288 7.147 3.288s-2.892-10.715.97-9.947c3.862.77 4.36 6.66 4.36 6.66s12.829-4.57 20.124-2.377c4.965 1.492 6.138 6.273 6.138 6.273s2.953-1.76 5.05-.675c2.091 1.084.18 4.763.18 4.763s3.236 2.493 2.245 6.45c-.99 3.956-3.82 11.778-3.82 11.778l-32.909-5.095z" mask="url(#nga0ji8onb)"/>
                <path fill="#FF9C79" d="M144.18 148.68l1.099 5.217c.714.364 1.422.663 2.119.904 10.2 3.53 18.553-5.26 18.553-5.26l-3.811-18.083-15.818 15.169-2.142 2.054z" mask="url(#nga0ji8onb)"/>
                <path fill="#363638" d="M144.18 148.68l1.099 5.217c.714.364 1.422.663 2.119.904 7.067-4.677 10.975-13.95 10.975-13.95l-12.051 5.776-2.142 2.054zM134.14 106.448s-12.352 3.842-5.024 16.066c0 0 6.041-12.682 5.024-16.066" mask="url(#nga0ji8onb)"/>
                <path fill="#F06A3F" d="M132.792 126.942s-3.7-2.875-4.636.977c-.937 3.852 1.843 10.664 6.107 8.555l-1.471-9.532z" mask="url(#nga0ji8onb)"/>
                <path fill="#FF9C79" d="M132.218 139.88s2.256 10.786 13.467 8.398c11.142-2.37 16.893-12.723 17.203-13.211.005-.01.01-.014.01-.014l-.356-2.292-1.845-11.896-.985-6.358s-.962-11.62-12.155-11.418c-8.178.148-15.274 3.006-18.129 7.89-1.05 1.802-1.526 3.88-1.267 6.199l2.032 11.366.498 2.786 1.527 8.55z" mask="url(#nga0ji8onb)"/>
                <path fill="#363638" d="M155.091 122.272s-1.652 6.625-5.302 6.317c-3.65-.307-7.704.105-10.517 2.216 0 0-5.653-.843-8.323 1.97-1.79 1.886 2.418 15.945 10.23 16.452 7.812.507 17.201-4.177 18.133-11.638.932-7.46-.469-13.35-.469-13.35l-3.752-1.967z" mask="url(#nga0ji8onb)"/>
                <path fill="#FFF" d="M136.97 133.963s6.309-.647 9.405-2.415c0 0 1.384 6.16-3.952 6.69-4.283.425-5.452-4.275-5.452-4.275" mask="url(#nga0ji8onb)"/>
                <path fill="#363638" d="M144.321 122.503c.227 1.078.9 1.849 1.503 1.722.604-.127.91-1.104.682-2.182-.227-1.08-.9-1.85-1.504-1.723-.603.128-.909 1.105-.68 2.183M133.654 124.75c.227 1.079.9 1.85 1.503 1.723.603-.127.909-1.104.682-2.182-.227-1.08-.901-1.85-1.504-1.723-.604.127-.91 1.104-.681 2.183M140.282 129.023c.245-.052.402-.292.35-.537-.052-.245-.292-.402-.537-.35-1.632.344-2.574-.355-2.908-.676 1.001-4.021 1.985-8.068 1.994-8.11.06-.242-.089-.487-.333-.546-.243-.06-.488.09-.547.333-.01.042-1.032 4.244-2.052 8.339-.033.132-.005.272.077.38.053.072 1.327 1.72 3.956 1.167M148.677 116.417c-.486-1.086-1.885-3.024-5.56-2.42-.448.075-.786.452-.814.906-.034.57.425 1.053.995 1.035 1.003-.031 2.514.2 3.647 1.608.353.439 1.016.464 1.424.074l.095-.091c.3-.287.383-.732.213-1.112M130.023 120.347c.007-1.19.504-3.528 4.11-4.457.441-.113.902.096 1.11.5.262.507.037 1.135-.492 1.348-.93.376-2.219 1.198-2.687 2.943-.147.544-.744.834-1.274.643l-.123-.045c-.392-.142-.646-.515-.644-.932M158.456 131.43c.076.109 2.189 3.103 4.433 3.636l.008-.013-.355-2.292s-1.835.07-4.086-1.33" mask="url(#nga0ji8onb)"/>
                <path fill="#FF9C79" d="M158.853 123.526s3.091-6.699 7.208-2.814c3.393 3.201.532 14.011-5.326 11.748l-1.882-8.934z" mask="url(#nga0ji8onb)"/>
                <path fill="#363638" d="M160.957 130.592c.223-.047.38-.256.357-.488-.444-4.484 2.905-6.785 3.048-6.882.208-.138.264-.42.125-.628-.139-.208-.42-.265-.628-.126-.16.107-3.946 2.687-3.447 7.725.024.249.246.431.496.407l.05-.008" mask="url(#nga0ji8onb)"/>
                <path fill="#363638" d="M164.53 127.03c.13-.026.245-.11.31-.236.114-.222.027-.495-.195-.61-.208-.108-2.062-1.025-3.323-.403-.225.11-.317.382-.206.606.111.225.383.317.607.207.724-.356 2.086.18 2.506.396.097.05.203.062.301.04M129.429 110.98c.159.36.389.653.694.862 2.662 1.826 7.64-.07 12.103-2.55 4.462-2.479 8.544.277 8.544.277-.364 4.85 4.209 4.272 3.98 7.936-.228 3.667 1.104 8.16 1.104 8.16l2.723-.96c.26-1.755 1.35-3.09 2.12-3.84l-.985-6.359s-.962-11.619-12.155-11.418c-8.178.15-15.274 3.006-18.128 7.891M212.975 263.927s10.677 42.131-44.69 42.131c-29.573 0-43.628-2.855-43.628-2.855s-.712 26.114-2.087 37.129c-1.375 11.016-6.251 38.464-6.251 38.464L93.027 380.6s-3.721-95.597 10.554-104.401c14.275-8.803 34.799-9.064 70.04-12.446 0 0 31.638-5.355 39.354.174" mask="url(#nga0ji8onb)"/>
                <path fill="#575759" d="M113.13 371.161c-.048 0-.098-.006-.147-.018-.34-.082-.55-.423-.47-.764 3.218-13.447 4.497-32.71 5.525-48.19 1.013-15.26 1.615-23.288 3.204-24.69 1.746-1.545 6.93-.993 15.523-.08 10.646 1.132 26.735 2.843 44.08.853 8.616-.988 15.22-4.362 19.63-10.03 7.913-10.165 6.097-24.435 6.078-24.578-.047-.347.197-.666.543-.713.348-.047.666.196.713.543.082.604 1.91 14.926-6.327 25.52-4.627 5.95-11.522 9.49-20.492 10.517-17.486 2.005-33.657.285-44.36-.852-7.387-.786-13.221-1.407-14.55-.232-.3.265-.895 1.575-1.513 7.367-.456 4.276-.831 9.921-1.265 16.458-1.031 15.527-2.314 34.851-5.555 48.403-.07.29-.33.486-.616.486" mask="url(#nga0ji8onb)"/>
                <path fill="#575759" d="M93.28 373.06c-.332 0-.61-.258-.631-.594-.021-.35.245-.65.594-.671l23.819-1.435c.354-.024.65.245.67.594.022.349-.244.649-.594.67L93.32 373.06h-.04" mask="url(#nga0ji8onb)"/>
                <path fill="#CDD4E7" d="M157.356 275.986H87.585c-.158 0-.287-.13-.287-.287v-8.593c0-.158.129-.287.287-.287h69.77c.16 0 .289.129.289.287v8.593c0 .158-.13.287-.288.287" mask="url(#nga0ji8onb)"/>
                <path fill="#FFF" d="M79.956 275.986c-2.647 0-4.964-1.78-5.647-4.337l-13.156-49.267c-.804-3.01 1.465-5.965 4.581-5.965H97.23c2.125 0 3.991 1.414 4.566 3.46l15.761 56.109H79.956z" mask="url(#nga0ji8onb)"/>
                <path fill="#CDD4E7" d="M101.798 219.877l15.63 55.646h3.599l-15.63-55.646c-.578-2.047-2.441-3.463-4.567-3.463h-3.6c2.127 0 3.989 1.416 4.568 3.463M92.9 247c.716 3.094-1.211 5.602-4.305 5.602-3.094 0-6.183-2.508-6.9-5.603-.715-3.094 1.213-5.602 4.307-5.602 3.094 0 6.182 2.508 6.898 5.602" mask="url(#nga0ji8onb)"/>
                <path fill="#FF9C79" d="M135.862 255.911s-14.277.983-18.842 5.348l2.775 9.881s8.54-3.49 10.903-3.153c2.366.338 3.778 4.224 11.687 1.86l-6.523-13.936z" mask="url(#nga0ji8onb)"/>
                <path fill="#FF9C79" d="M135.937 255.263l1.61-.656 1.672-.702c1.117-.475 2.234-.96 3.348-1.455 2.228-.99 4.444-2.014 6.639-3.07 4.388-2.11 8.697-4.345 12.854-6.722 4.15-2.378 8.165-4.902 11.834-7.601.912-.676 1.807-1.36 2.67-2.054.86-.696 1.692-1.4 2.488-2.111 1.573-1.424 3.014-2.884 4.136-4.301.56-.701 1.059-1.408 1.429-2.032.334-.57.647-1.203.928-1.908.56-1.411 1.002-3.084 1.3-4.913.592-3.682.614-7.93.23-12.281-.38-4.361-1.145-8.856-2.162-13.334-.51-2.24-1.086-4.48-1.718-6.694-.316-1.107-.647-2.21-.99-3.294-.172-.541-.347-1.08-.523-1.605l-.265-.774-.13-.368-.062-.168-.028-.076-.013-.028c-3.012-6.282-.36-13.816 5.922-16.828 6.283-3.011 13.817-.36 16.828 5.923.292.608.53 1.228.717 1.855l.38 1.31.102.349.079.282.145.538.27 1.039c.175.686.34 1.362.5 2.037.319 1.349.616 2.69.893 4.034.555 2.686 1.039 5.379 1.448 8.099.815 5.44 1.356 10.972 1.427 16.69.036 2.858-.055 5.766-.322 8.734-.273 2.968-.726 6-1.478 9.099-.764 3.097-1.826 6.273-3.414 9.429-.795 1.576-1.732 3.14-2.823 4.653-1.056 1.456-2.137 2.72-3.25 3.907-2.22 2.363-4.513 4.317-6.822 6.109-2.312 1.775-4.648 3.362-6.997 4.835-4.7 2.939-9.454 5.436-14.242 7.726-4.79 2.284-9.615 4.342-14.478 6.252-2.432.952-4.873 1.867-7.33 2.746-1.228.439-2.461.869-3.701 1.29l-1.871.625-1.948.628c-4.233 1.365-8.77-.96-10.135-5.193-1.3-4.03.745-8.334 4.595-9.917l.258-.104z" mask="url(#nga0ji8onb)"/>
                <path fill="#F06A3F" d="M194.361 228.146c-.047 0-.096-.007-.144-.021-4.87-1.461-10.308-1.236-10.363-1.234-.277.01-.51-.201-.522-.476-.013-.277.201-.51.476-.523.23-.01 5.66-.237 10.697 1.275.264.079.414.358.335.622-.065.216-.264.357-.479.357" mask="url(#nga0ji8onb)"/>
                <path fill="#F06A3F" d="M185.085 226.876c-.14 0-.28-.059-.378-.173-.181-.209-.158-.524.05-.705 1.817-1.573 4.1-2.26 4.198-2.288.265-.078.542.072.62.338.079.264-.072.542-.337.621-.021.006-2.178.657-3.826 2.085-.094.082-.211.122-.327.122" mask="url(#nga0ji8onb)"/>
                <path fill="#FE615B" d="M212.162 196.305l-10.35 2.84-.76.21-7.15 1.96-.87.24-9.2 2.52-.71-3.26-.16-.78-1.66-7.66-.17-.77-3.13-14.45c-.85-3.34-1.41-7.52-.94-10.93.69-5.05 5.12-11.6 13.29-12.04 1.46-.08 2.83.14 4.11.61.26.08.52.19.77.3 2.47 1.12 4.61 3.18 6.45 5.83.15.21.29.42.42.64 3.5 5.32 5.89 12.76 7.49 19.72.07.27.13.54.19.81.74 3.31 1.3 6.5 1.72 9.26.07.43.13.85.18 1.26.2 1.37.36 2.61.48 3.69" mask="url(#nga0ji8onb)"/>
                <path fill="#C52B4B" d="M211.502 191.355c-1.23-1.12-2.89-1.9-5.45-1.44-3.04.54-5.43-.44-6.39-2.63-.73-1.64-.39-3.56.78-4.46 2.34-1.8 5.93-1.65 9.34-.73-.06-.27-.12-.54-.19-.81-3.5-.89-7.16-.95-9.62.93-1.1.85-1.61 2.33-1.43 3.86.06.51.2 1.02.41 1.52 1.12 2.53 3.83 3.68 7.24 3.07 2.75-.5 4.27.57 5.49 1.95-.05-.41-.11-.83-.18-1.26M200.692 168.725c-2.12-3.07-.53-5.1 1.41-7.16-.13-.22-.27-.43-.42-.64-2.05 2.15-4.12 4.62-1.62 8.24 1.73 2.51 2.16 4.55 1.19 5.6-1.09 1.17-3.71.9-6.36-.66-2.44-1.44-3.23-6.38-2.24-13.92.24-1.81 1.04-3.44 2.2-4.71.12-.13.25-.26.38-.38-.25-.11-.51-.22-.77-.3-1.37 1.41-2.29 3.24-2.57 5.28-.43 3.33-.66 7.2-.03 10.2.43 2.02 1.24 3.66 2.64 4.49 2.1 1.23 4.17 1.71 5.68 1.39.66-.14 1.22-.43 1.63-.87 1.24-1.33.83-3.72-1.12-6.56M181.32 191.7c-1.698-10.105-3.848-19.571-3.87-19.673-.047-.202-.249-.33-.45-.283-.204.046-.33.248-.284.45.023.1 2.16 9.508 3.852 19.567.111.398.752.419.752-.061" mask="url(#nga0ji8onb)"/>
                <path fill="#C52B4B" d="M178.582 179.501c-.069 0-.14-.019-.202-.059l-3.902-2.5c-.175-.112-.226-.345-.114-.52.112-.175.344-.225.519-.113l3.902 2.5c.175.111.226.344.114.52-.072.111-.193.172-.317.172" mask="url(#nga0ji8onb)"/>
                <path fill="#FFF" d="M153.307 180.583c-1.32 0-2.53-.48-3.61-1.431-6.167-5.433-6.14-25.168-6.137-26.006.002-.395.323-.714.717-.714h.004c.396.002.715.325.713.72 0 .2-.028 19.92 5.651 24.924.97.854 2.025 1.192 3.223 1.034 7.586-1 11.042-23.09 11.733-31.516.033-.395.378-.69.774-.657.395.033.69.379.656.774-.006.078-.659 7.863-2.51 15.705-2.546 10.778-6.067 16.537-10.465 17.117-.254.033-.503.05-.749.05" mask="url(#nga0ji8onb)"/>
                <path fill="#004ECB" d="M210.63 364.962h-74.777c-1.749 0-3.168-1.419-3.168-3.168s1.42-3.167 3.168-3.167h74.777c1.75 0 3.167 1.418 3.167 3.167 0 1.75-1.418 3.168-3.167 3.168" mask="url(#nga0ji8onb)"/>
                <path fill="#0076FB" d="M128.973 413.334c-.14 0-.282-.01-.424-.029-1.735-.233-2.95-1.826-2.72-3.56l13.622-101.704c.21-1.572 1.552-2.747 3.14-2.747h61.007c1.59 0 2.933 1.178 3.141 2.754l13.41 101.704c.227 1.733-.993 3.325-2.727 3.554-1.734.23-3.326-.993-3.554-2.727l-13.047-98.95h-55.459l-13.254 98.957c-.213 1.591-1.573 2.748-3.135 2.748" mask="url(#nga0ji8onb)"/>
                <path fill="#0076FB" d="M160.26 308.462h39.623c12.553 0 25.996-6.87 27.923-19.274 2.577-16.586 3.215-32.65 2.495-47.39-.814-16.672-7.29-32.148-20.395-42.483 0 0 5.658 64.298.553 82.064-6.821 23.735-50.2 27.083-50.2 27.083M39.002 176.048v19.02c0 2.515 2.04 4.555 4.555 4.555h34.536l10.427 3.74c1.07.386 2.095-.667 1.685-1.726l-3.944-10.185v-15.404c0-2.514-2.04-4.554-4.557-4.554H43.557c-2.515 0-4.555 2.04-4.555 4.554" mask="url(#nga0ji8onb)"/>
                <path fill="#004ECB" d="M69.006 186.099c0 1.82 1.475 3.295 3.294 3.295 1.82 0 3.295-1.475 3.295-3.295 0-1.82-1.475-3.294-3.295-3.294-1.819 0-3.294 1.475-3.294 3.294M58.577 186.099c0 1.82 1.475 3.295 3.294 3.295 1.82 0 3.295-1.475 3.295-3.295 0-1.82-1.475-3.294-3.295-3.294-1.819 0-3.294 1.475-3.294 3.294M48.148 186.099c0 1.82 1.475 3.295 3.294 3.295 1.82 0 3.295-1.475 3.295-3.295 0-1.82-1.475-3.294-3.295-3.294-1.819 0-3.294 1.475-3.294 3.294" mask="url(#nga0ji8onb)"/>
                <path fill="#CDD4E7" d="M647.175 101.294c0 14.69-12.06 26.6-26.934 26.6-14.875 0-26.933-11.91-26.933-26.6 0-14.69 12.058-26.599 26.933-26.599s26.934 11.91 26.934 26.6" mask="url(#nga0ji8onb)"/>
                <path fill="#00B770" d="M647.175 97.831c0 14.69-12.06 26.6-26.934 26.6-14.875 0-26.933-11.91-26.933-26.6 0-14.69 12.058-26.599 26.933-26.599s26.934 11.91 26.934 26.6" mask="url(#nga0ji8onb)"/>
                <path fill="#FFF" d="M620.241 119.455c-12.073 0-21.896-9.7-21.896-21.624 0-11.923 9.823-21.624 21.896-21.624s21.896 9.701 21.896 21.624c0 11.923-9.823 21.624-21.896 21.624" mask="url(#nga0ji8onb)"/>
                <path fill="#CDD4E7" d="M642.138 97.832c0 .576-.023 1.146-.068 1.708-.885-11.128-10.338-19.916-21.828-19.916-11.492 0-20.943 8.788-21.83 19.916-.043-.562-.066-1.132-.066-1.708 0-11.925 9.82-21.624 21.896-21.624 12.073 0 21.896 9.699 21.896 21.624" mask="url(#nga0ji8onb)"/>
                <path fill="#363638" d="M620.242 100.081c-.17 0-.334-.078-.44-.218L609.06 85.581c-.18-.24-.13-.579.114-.757.242-.178.586-.128.766.112l10.481 13.935 11.912-5.163c.276-.12.6.004.722.278.121.274-.005.593-.282.713l-12.31 5.336c-.073.031-.147.046-.22.046" mask="url(#nga0ji8onb)"/>
                <path fill="#0076FB" d="M72.225 133.431h-7.287c-.659 0-1.192-.533-1.192-1.19V93.385c0-.658.533-1.19 1.191-1.19h7.288c.657 0 1.19.532 1.19 1.19v38.856c0 .657-.533 1.19-1.19 1.19" mask="url(#nga0ji8onb)"/>
                <path fill="#004ECB" d="M70.78 114.224h-4.399c-.644 0-1.166-.522-1.166-1.167v-.489c0-.645.522-1.167 1.166-1.167h4.4c.644 0 1.166.522 1.166 1.167v.49c0 .644-.522 1.166-1.167 1.166M63.746 97.116L73.415 97.116 73.415 95.524 63.746 95.524zM63.746 100.446L73.415 100.446 73.415 98.854 63.746 98.854zM63.746 125.022L73.415 125.022 73.415 123.43 63.746 123.43zM63.746 128.352L73.415 128.352 73.415 126.759 63.746 126.759z" mask="url(#nga0ji8onb)"/>
                <path fill="#00B770" d="M53.78 133.431h-9.073c-.165 0-.298-.133-.298-.297V92.492c0-.165.133-.298.298-.298h9.073c.165 0 .298.133.298.298v40.642c0 .164-.133.297-.298.297" mask="url(#nga0ji8onb)"/>
                <path fill="#007D55" d="M51.443 114.224h-4.4c-.643 0-1.165-.522-1.165-1.167v-.489c0-.645.522-1.167 1.166-1.167h4.399c.644 0 1.167.522 1.167 1.167v.49c0 .644-.523 1.166-1.167 1.166M44.409 97.116L54.078 97.116 54.078 95.524 44.409 95.524zM44.409 100.446L54.078 100.446 54.078 98.854 44.409 98.854zM44.409 125.022L54.078 125.022 54.078 123.43 44.409 123.43zM44.409 128.352L54.078 128.352 54.078 126.759 44.409 126.759z" mask="url(#nga0ji8onb)"/>
                <path fill="#FE615B" d="M62.556 133.431h-7.287c-.658 0-1.191-.533-1.191-1.19V93.385c0-.658.533-1.19 1.19-1.19h7.288c.658 0 1.19.532 1.19 1.19v38.856c0 .657-.532 1.19-1.19 1.19" mask="url(#nga0ji8onb)"/>
                <path fill="#C52B4B" d="M61.112 114.224h-4.4c-.643 0-1.166-.522-1.166-1.167v-.489c0-.645.523-1.167 1.167-1.167h4.399c.644 0 1.167.522 1.167 1.167v.49c0 .644-.523 1.166-1.167 1.166M54.078 97.116L63.747 97.116 63.747 95.524 54.078 95.524zM54.078 100.446L63.747 100.446 63.747 98.854 54.078 98.854zM54.078 125.022L63.747 125.022 63.747 123.43 54.078 123.43zM54.078 128.352L63.747 128.352 63.747 126.759 54.078 126.759z" mask="url(#nga0ji8onb)"/>
                <path fill="#FFB028" d="M89.118 131.975l-8.958 1.444c-.162.026-.315-.084-.341-.246l-6.47-40.124c-.024-.162.086-.315.248-.342l8.958-1.444c.162-.026.315.085.34.247l6.47 40.124c.025.162-.085.315-.247.341" mask="url(#nga0ji8onb)"/>
                <path fill="#DD7F21" d="M84.649 113.24l-6.134.99c-.142.022-.275-.074-.298-.216l-.366-2.275c-.023-.14.073-.274.215-.297l6.134-.989c.14-.023.274.073.297.215l.367 2.275c.023.141-.073.275-.215.297M83.632 96.076L74.087 97.615 73.833 96.043 83.379 94.504zM84.162 99.364L74.617 100.903 74.362 99.329 83.909 97.791zM88.073 123.626L78.527 125.165 78.274 123.593 87.82 122.054zM88.603 126.913L79.058 128.452 78.804 126.88 88.35 125.341z" mask="url(#nga0ji8onb)"/>
                <path fill="#CDD4E7" d="M113.986 144.484L26.412 144.484 24.493 139.393 116.173 139.393z" mask="url(#nga0ji8onb)"/>
                <path fill="#363638" d="M24.493 139.393L116.173 139.393 116.173 133.342 24.493 133.342zM33.835 139.393L36.286 144.53 42.063 144.53 43.707 139.393zM106.832 139.393L104.38 144.53 98.603 144.53 96.96 139.393z" mask="url(#nga0ji8onb)"/>
                <path fill="#CDD4E7" d="M677.233 410.664c0 4.292-59.119 7.771-132.046 7.771-72.928 0-132.046-3.479-132.046-7.77 0-4.294 59.118-7.773 132.046-7.773 72.927 0 132.046 3.48 132.046 7.772" mask="url(#nga0ji8onb)"/>
                <path fill="#363638" d="M596.951 414.296c-41.255-1.448-83.925-7.075-106.01-83.096-6.567-22.597-2.297-39.712 4.91-52.606 1.781-3.186 3.741-6.113 5.76-8.803l.002-.002c.761-1.014 1.53-1.994 2.304-2.94 16.118-19.766 43.153-26.857 67.115-18.12 13.44 4.898 30.68 12.142 46.05 21.561 30.884 18.926 38.128 40.505 48.218 77.523.867 3.177 1.732 6.743 2.39 10.527.353 2.024.645 4.11.844 6.233 2.236 23.67-6.894 51.997-71.583 49.723" mask="url(#nga0ji8onb)"/>
                <path fill="#575759" d="M668.534 364.574c-1.37 3.849-3.32 7.767-5.92 11.488-7.804 11.178-24.048 24.685-57.134 25.558-1.456.038-2.894.055-4.312.055-12.64 0-23.79-1.524-33.977-4.637-10.655-3.255-19.96-8.165-28.442-15.01-14.174-11.436-25.856-28.167-37.87-54.244-4.746-10.3-7.206-20.74-7.314-31.026-.063-6.135.701-12.22 2.285-18.163 1.782-3.187 3.742-6.115 5.761-8.804-.512 1.183-1.009 2.418-1.479 3.709-4.322 11.851-7.298 30.707 3.071 53.212 21.088 45.772 45.543 73.833 102.21 72.348 32.017-.841 47.637-13.767 55.1-24.464 3.896-5.584 6.102-11.233 7.176-16.255.354 2.024.646 4.108.845 6.233" mask="url(#nga0ji8onb)"/>
                <path fill="#004ECB" d="M609.52 224.283s25.9 35.144 31.812 52.646c5.909 17.501-8.433 29.94-8.433 29.94l-13.317 4.995s-13.688-61.809-10.063-87.58" mask="url(#nga0ji8onb)"/>
                <path fill="#FFF" d="M607.236 322.719c-11.322 3.754-38.978 13.592-50.995 9.608-.506-.169-.984-.36-1.434-.581-1.309-.635-2.362-1.498-3.098-2.616-4.71-7.175-9.383-37.257-7.285-54.944.263-2.208.39-4.609.434-7.126.062-3.708-.06-7.676-.219-11.671-.592-15.021-2.959-25.393 3.466-29.041 5.768-3.277 13.066-5.839 17.72-6.951 2.882-.691 7.6-2.133 10.906-2.067l14.324 2.603s12.361 2.062 15.214 4.168c2.852 2.103 4.31 11.372 9.463 19.863 5.152 8.492 6.272 17.006 1.351 26.327-4.282 8.107-3.528 5.032-4.088 18.334-.689 16.297 16.345 26.769-5.759 34.094" mask="url(#nga0ji8onb)"/>
                <path fill="#CDD4E7" d="M569.213 246.352s15.52-4.015 35.325-.313l.479 13.69s-21.78-2.421-35.497 1.07l-.307-14.447zM587.045 234.786c-.208 0-.421-.005-.64-.017-8.48-.436-16.254-7.922-16.581-8.24-.23-.224-.234-.592-.01-.822.223-.23.59-.234.82-.01.078.074 7.793 7.498 15.832 7.912 7.705.406 8.633-7.234 8.669-7.559.035-.319.323-.549.64-.514.319.034.549.32.515.64-.01.087-1.025 8.61-9.245 8.61M563.006 303.324c-.061-.046-.114-.104-.156-.172-.173-.286-.081-.658.205-.83 11.028-6.676 21.609-9.03 28.544-9.832 7.528-.868 12.38-.165 12.583-.135.33.05.557.358.508.688-.05.33-.357.558-.687.51-.05-.008-4.931-.712-12.311.144-6.804.79-17.187 3.107-28.011 9.66-.217.13-.484.11-.675-.033" mask="url(#nga0ji8onb)"/>
                <path fill="#0076FB" d="M577.422 328.166c-10.192-3.228-19.407-9.73-25.703-15.524-.498-.459-.978-.914-1.44-1.362-3.258-3.166-5.557-1.538-6.554-3.363-3.81-6.974-1.648-34.323 0-44.367 1.645-10.042-5.284-28.445-1.555-35.025 3.728-6.582 16.577-8.876 16.577-8.876s-1.818-2.12 1.632-4.546c3.452-2.424 12.633-1.42 12.633-1.42.435 43.47 6.595 83.85 4.41 114.483" mask="url(#nga0ji8onb)"/>
                <path fill="#FFF" d="M567.403 315.705c-.275 0-.518-.2-.56-.482-4.638-30.154-.052-86.868-.005-87.437.025-.313.3-.545.612-.52.313.026.546.3.52.613-.046.568-4.622 57.15-.005 87.171.048.31-.165.6-.475.648-.029.005-.059.007-.087.007" mask="url(#nga0ji8onb)"/>
                <path fill="#004ECB" d="M576.73 320.229c-.27 0-.51-.194-.56-.47-6.064-34.634-6.547-94.387-6.552-94.987-.002-.314.251-.57.564-.572h.004c.313 0 .566.252.568.564.004.599.488 60.258 6.537 94.799.053.31-.154.604-.462.658-.034.006-.067.008-.099.008M566.664 224.423c-.049 0-.098-.006-.146-.02-4.803-1.279-7.744-4.113-7.866-4.233-.224-.22-.228-.579-.009-.804.219-.224.579-.228.803-.009.028.027 2.862 2.75 7.364 3.95.303.08.483.39.403.694-.069.254-.298.422-.549.422" mask="url(#nga0ji8onb)"/>
                <path fill="#0076FB" d="M621.57 309.189s-3.635 12.233-17.155 18.06c-1.675-33.16-5.485-71.027-10.392-111.311 0 0 5.167-.908 7.323 2.046.93 1.272 1.13 3.429 1.13 3.429s2.64.51 5.532 1.858c2.894 1.346 2.562 3.198 3.253 7.897.691 4.695 7.947 11.969 10.308 21.82 2.364 9.848-3.898 16.132-5.853 24.395-1.955 8.265 5.853 31.806 5.853 31.806" mask="url(#nga0ji8onb)"/>
                <path fill="#FFF" d="M609.964 314.32c-.307 0-.56-.245-.568-.553-1.307-45.11-9.546-85.417-9.63-85.82-.063-.308.135-.607.442-.67.307-.064.608.134.67.44.085.403 8.344 40.804 9.654 86.018.009.313-.238.575-.551.584h-.017z" mask="url(#nga0ji8onb)"/>
                <path fill="#004ECB" d="M597.519 225.673c-.273 0-.514-.195-.56-.473-.052-.309.156-.602.464-.655.038-.007 3.675-.665 4.51-3.305.096-.298.414-.464.715-.37.298.095.464.414.37.713-1.048 3.306-5.226 4.052-5.404 4.082-.033.006-.065.008-.096.008M608.64 314.32c-.284 0-.53-.212-.563-.502-4-33.255-10.32-86.407-10.383-86.94-.037-.313.185-.595.497-.632.309-.038.595.184.632.496.063.534 6.38 53.686 10.38 86.94.04.313-.183.595-.495.633-.023.002-.046.005-.068.005" mask="url(#nga0ji8onb)"/>
                <path fill="#00B770" d="M575.05 338.2c1.726 1.238 4.455 2.526 8.539 3.825 23.198 7.382 44.469-4.533 44.469-4.533 1.286-6.353.49-13.572-1.65-16.215.673-.938.228-2.06.228-2.06l21.35-22.164c-12.141 10.062-27.16 13.354-38.85 20.42h-.006c-3.368 2.035-6.397 3.83-8.617 5.075-3.387 1.901-7.71 2.088-11.946 1.505-8.257-1.142-16.177-5.21-16.177-5.21s-26.588-12.05-31.573-11.649c-3.876.311 16.98 22.088 34.234 31.005" mask="url(#nga0ji8onb)"/>
                <path fill="#FF9C79" d="M616.143 356.774s-6.845-1.966-8.946-4.187l-4.755 11.195 16.188 5.053s.226-9.835-2.487-12.061" mask="url(#nga0ji8onb)"/>
                <path fill="#FEB205" d="M655.21 389.13l-20.926-46.45c-.784-.064-1.76.15-2.855.55-4.06 1.48-9.767 5.557-13.444 7.953-.428.282-.831.54-1.198.765-.622.384-1.148.684-1.553.866-3.226 1.454-1.526 3.195-1.526 3.195 6.017 3.01 2.353 11.926 6.02 14.013 0 0 1.562.905 6.542 3.1 4.978 2.19 9.994 7.477 14.633 11.81 5.987 5.594 9.746 6.252 11.9 5.741 1.706-.406 2.408-1.544 2.408-1.544" mask="url(#nga0ji8onb)"/>
                <path fill="#DD7F21" d="M655.21 389.13l-20.926-46.45c-.784-.064-1.76.15-2.855.55l21.374 47.443c1.706-.406 2.408-1.544 2.408-1.544" mask="url(#nga0ji8onb)"/>
                <path fill="#DD7F21" d="M636.419 347.418l-.622-1.38c-.953 2.086-2.786 4.461-6.313 5.848-4.69 1.844-9.025.483-11.5-.703-.427.282-.83.54-1.197.765 2.505 1.353 7.522 3.274 13.14 1.07 3.368-1.327 5.34-3.514 6.492-5.6" mask="url(#nga0ji8onb)"/>
                <path fill="#FFF" d="M628.655 371.099c-.155-.344-.529-.551-.916-.48-.456.083-.759.52-.676.976l.587 3.226c.082.456.52.758.977.675.456-.083.758-.52.674-.975l-.585-3.227c-.013-.07-.034-.133-.06-.195M624.94 369.304c-.155-.344-.528-.551-.916-.48-.456.083-.759.519-.676.975l.587 3.227c.082.456.52.758.977.675.456-.083.758-.52.674-.976l-.586-3.226c-.012-.07-.033-.134-.06-.195M631.648 373.24c-.154-.344-.528-.55-.916-.48-.455.083-.758.52-.675.976l.587 3.226c.082.457.52.758.976.675.456-.082.758-.519.675-.975l-.586-3.227c-.013-.068-.033-.133-.06-.195M634.577 375.411c-.154-.343-.528-.55-.916-.48-.456.083-.759.52-.675.976l.587 3.227c.082.456.521.758.976.675.456-.083.758-.52.675-.976l-.586-3.227c-.013-.068-.034-.133-.06-.195M637.502 377.9c-.154-.343-.528-.551-.915-.48-.456.083-.76.52-.676.976l.587 3.227c.083.456.52.758.977.675.455-.083.757-.52.674-.976l-.586-3.227c-.013-.068-.034-.133-.061-.195M640.327 380.755c-.155-.344-.528-.55-.916-.48-.456.083-.759.52-.676.976l.587 3.226c.082.457.52.758.977.675.456-.083.758-.519.675-.975l-.586-3.227c-.013-.069-.034-.134-.06-.195" mask="url(#nga0ji8onb)"/>
                <path fill="#00B770" d="M540.816 307.195s-16.827-9.082-26.574-2.063c-17.823 12.837 12.42 37.53 47.015 49.589 34.597 12.058 45.83 10.413 45.83 10.413s7.516-2.069 4.85-14.25c0 0-19.943-7.583-30.319-15.524-10.377-7.942-17.449-17.675-40.802-28.166" mask="url(#nga0ji8onb)"/>
                <path fill="#007D55" d="M610.59 354.427c-7.255-1.744-22.041-8.526-39.551-18.142-13.096-7.192-28.2-16.383-30.417-19.571-1.198-1.722-1.5-3.13-.896-4.185.9-1.581 3.496-1.744 4.677-1.733.306.003.544.262.523.566-.021.275-.25.489-.526.487-1.163-.008-3.186.191-3.761 1.201-.478.839.197 2.129.848 3.064 1.787 2.571 14.428 10.666 30.058 19.249 13.459 7.391 30.85 16.011 39.292 18.041l-.246 1.023z" mask="url(#nga0ji8onb)"/>
                <path fill="#007D55" d="M609.226 349.266c-.817 6.403-2.479 12.224-6.096 16.687 0 0 3.097 2.23 5.927.63 2.16-1.221 6.327-11.222 4.74-16.562-1.808-.987-3.368-1.331-4.572-.755" mask="url(#nga0ji8onb)"/>
                <path fill="#FF9C79" d="M565.32 355.508s6.88-1.328 8.826-3.686l5.493 10.854-15.814 6.122s-1.063-10.89 1.495-13.29" mask="url(#nga0ji8onb)"/>
                <path fill="#FEB205" d="M528.682 391.491l17.777-47.744c.778-.115 1.765.032 2.886.36 4.149 1.204 10.115 4.892 13.944 7.035.447.254.866.485 1.247.685.647.341 1.192.605 1.607.76 3.317 1.235 1.935 2.168 1.935 2.168-6.536 3.067-1.75 12.974-5.268 15.3 0 0-1.498 1.01-6.32 3.531-4.821 2.518-9.473 8.13-13.813 12.761-5.6 5.983-9.306 6.89-11.49 6.524-1.73-.292-2.505-1.38-2.505-1.38" mask="url(#nga0ji8onb)"/>
                <path fill="#DD7F21" d="M528.682 391.491l17.777-47.744c.778-.115 1.765.032 2.886.36l-18.157 48.764c-1.73-.292-2.506-1.38-2.506-1.38" mask="url(#nga0ji8onb)"/>
                <path fill="#DD7F21" d="M544.645 348.618l.528-1.418c1.09 2.018 3.078 4.265 6.69 5.412 4.803 1.527 9.037-.12 11.426-1.47.446.254.865.485 1.247.685-2.41 1.517-7.287 3.77-13.04 1.943-3.449-1.096-5.562-3.148-6.85-5.152" mask="url(#nga0ji8onb)"/>
                <path fill="#FFF" d="M553.974 371.728c.132-.354.49-.585.882-.541.46.053.792.469.739.93l-.37 3.257c-.051.46-.468.792-.93.74-.46-.052-.791-.468-.738-.93l.37-3.257c.008-.07.024-.137.047-.2M557.56 369.689c.133-.354.49-.585.883-.541.46.053.792.468.739.929l-.37 3.258c-.053.46-.469.792-.93.74-.46-.053-.791-.468-.738-.93l.37-3.258c.007-.07.024-.136.047-.198M551.13 374.065c.132-.354.49-.585.882-.541.46.053.792.469.739.93l-.37 3.257c-.052.46-.468.792-.93.74-.46-.052-.791-.468-.738-.93l.37-3.257c.008-.07.024-.137.047-.2M548.354 376.427c.13-.354.49-.585.88-.541.462.052.793.469.74.929l-.37 3.258c-.053.461-.469.791-.93.74-.46-.053-.791-.469-.738-.929l.37-3.259c.007-.069.024-.136.048-.198M545.6 379.105c.132-.353.49-.585.882-.541.462.053.793.469.74.93l-.37 3.257c-.053.46-.468.792-.93.74-.46-.052-.792-.468-.739-.93l.37-3.257c.009-.07.024-.137.048-.2M542.974 382.142c.13-.353.49-.585.882-.54.46.052.79.468.738.929l-.37 3.257c-.051.46-.468.792-.93.74-.46-.052-.79-.468-.738-.93l.37-3.257c.008-.07.025-.137.048-.2" mask="url(#nga0ji8onb)"/>
                <path fill="#00B770" d="M641.136 299.818s15.923-10.586 26.272-4.49c18.926 11.146-8.924 38.51-42.268 53.69-33.345 15.18-44.681 14.574-44.681 14.574s-7.675-1.37-6.136-13.745c0 0 19.163-9.38 28.767-18.24 9.604-8.86 15.754-19.2 38.046-31.79" mask="url(#nga0ji8onb)"/>
                <path fill="#007D55" d="M612.014 354.729c-1.836.604-3.703 1.21-5.63 1.817-7.46 2.349-15.976 4.807-23.69 6.702l-.028 1.102c6.965-1.698 15.14-4 24.035-6.801 1.736-.546 3.508-1.121 5.285-1.705l.028-1.115zM575.987 353.251c7.065-2.402 21.167-10.512 37.722-21.693 12.381-8.363 26.578-18.902 28.493-22.279 1.034-1.825 1.205-3.255.51-4.25-1.043-1.492-3.642-1.416-4.819-1.296-.303.031-.517.31-.468.611.046.272.293.465.57.437 1.156-.115 3.19-.102 3.854.851.553.791 0 2.138-.562 3.13-1.544 2.722-13.39 11.943-28.167 21.924-12.725 8.594-29.25 18.774-37.472 21.57l.34.995z" mask="url(#nga0ji8onb)"/>
                <path fill="#007D55" d="M576.874 347.986c1.401 6.303 3.588 11.946 7.6 16.06 0 0-2.88 2.504-5.844 1.17-2.264-1.019-7.33-10.596-6.238-16.058 1.709-1.15 3.23-1.635 4.482-1.172" mask="url(#nga0ji8onb)"/>
                <path fill="#0076FB" d="M574.724 297.474l-1.28 18.27s-21.725-3.102-32.392-5.821c-3.105-.791-6.594-1.808-9.785-3.507-5.887-3.13-10.772-8.576-10.41-19.195.113-3.41.772-7.353 2.109-11.927 7.765-26.534 20.759-48.81 20.759-48.81 16.73 7.16 15.324 19.078 15.324 19.078-4.773 12.728-15.324 39.84-15.324 39.84 6.124 7.48 30.999 12.072 30.999 12.072" mask="url(#nga0ji8onb)"/>
                <path fill="#004ECB" d="M543.725 285.97c-.105 0-.209-.028-.3-.085-1.845-1.144-6.881-2.33-6.931-2.342-.307-.071-.497-.377-.425-.682.072-.306.378-.495.683-.424.178.042 3.705.873 6.038 1.865-.34-.76-.894-1.57-1.67-2.452-.207-.235-.183-.595.052-.802.236-.207.594-.184.801.052 1.34 1.523 2.096 2.9 2.313 4.21.036.22-.06.44-.246.564-.096.064-.205.096-.315.096M531.266 306.416c-5.886-3.13-10.77-8.576-10.41-19.195 4.664 2.438 12.793 8.353 10.41 19.195" mask="url(#nga0ji8onb)"/>
                <path fill="#004ECB" d="M561.058 294.672c-.047 0-.095-.006-.142-.019-10.763-2.775-17.3-8.584-17.572-8.83-.19-.172-.242-.45-.126-.679 7.675-15.089 12.53-27.073 15.28-37.71.08-.305.39-.489.694-.409.304.08.486.388.408.692-2.748 10.627-7.57 22.564-15.166 37.542 1.453 1.197 7.61 5.934 16.766 8.294.304.078.487.39.408.692-.066.256-.297.427-.55.427" mask="url(#nga0ji8onb)"/>
                <path fill="#004ECB" d="M556.749 255.895c-.124 0-.249-.04-.354-.123-.245-.195-.286-.553-.09-.8l3.987-5.011c.195-.245.553-.286.799-.09.245.195.286.552.091.798l-3.988 5.012c-.112.14-.278.214-.445.214" mask="url(#nga0ji8onb)"/>
                <path fill="#363638" d="M575.349 209.845l19.305 2.758c12.536-1.254 16.529-6.237 18.58-16.777 1.03-5.297.347-9.982-.664-13.455-.265-3.962-1.166-7.384-3.04-9.643-8.471-10.211-15.931-9.813-15.931-9.813-3.79-1.737-16.313-2.927-24.574 7.099-.003 0-.003.003-.003.003-.262.223-5.296 5.558-6.46 16.763-1.107 10.679 6.018 24.318 12.787 23.065" mask="url(#nga0ji8onb)"/>
                <path fill="#363638" d="M586.13 165.72s2.005-17.8-13.79-15.545c-10.321 1.475-16.707 15.462-7.271 21.812 9.438 6.351 21.06-6.268 21.06-6.268" mask="url(#nga0ji8onb)"/>
                <path fill="#FEB205" d="M566.656 173.816c-.08 0-.164-.02-.24-.062-.242-.133-.33-.438-.197-.679 3.66-6.654 8.878-9.594 12.612-10.89 4.05-1.405 7.196-1.235 7.328-1.227.275.017.485.254.47.53-.017.274-.248.486-.53.47-.123-.009-12.309-.573-19.005 11.6-.09.164-.26.258-.438.258" mask="url(#nga0ji8onb)"/>
                <path fill="#363638" d="M576.864 205.825s-12.313-6.886-9.892-21.226c2.421-14.339 11.86-22.968 26.334-18.81 0 0-1.404 41.45-16.442 40.036M611.102 179.462s1.257 12.309-.986 14.09c-2.244 1.78-4.442-3.086-4.442-3.086s3.058-10.87 5.428-11.004" mask="url(#nga0ji8onb)"/>
                <path fill="#F06A3F" d="M605.434 194.669s3.673-3.225 4.889.728c1.216 3.952-1.254 11.218-5.824 9.288l.935-10.016z" mask="url(#nga0ji8onb)"/>
                <path fill="#00B770" d="M609.952 203.788c-.504.46-1.06.862-1.665 1.188-2.306 1.243-5.322 1.39-8.938-.513 0 0-4.626-6.02 2.212-16.636 0 0 6.273-1.651 9.857 2.142.395.416.76.9 1.075 1.462.196.34.374.713.531 1.113 1.272 3.228.091 8.374-3.072 11.244" mask="url(#nga0ji8onb)"/>
                <path fill="#FFF" d="M609.787 188.682c.285-1.419.579-3.177.77-5.127-.088.04-.178.065-.279.073-.388.027-.774-.126-1.15-.406-.168 1.82-.429 3.474-.688 4.838l1.347.622z" mask="url(#nga0ji8onb)"/>
                <path fill="#007D55" d="M609.952 203.788c-.504.46-1.06.862-1.665 1.188 3.173-6.566 3.262-12.568 3.131-15.007.395.416.76.9 1.075 1.462-.003 2.757-.416 7.295-2.54 12.357" mask="url(#nga0ji8onb)"/>
                <path fill="#FF9C79" d="M594.727 212.43l-1.514 10.177s-6.226 7.987-20.654-5.041c1.643-4.144 4.158-9.465 3.514-13.551 0 0 1.053.966 2.865 2.119.371.237.77.485 1.193.744 3.753 2.276 9.473 5.192 14.596 5.553" mask="url(#nga0ji8onb)"/>
                <path fill="#363638" d="M594.727 212.43l-.707 4.765c-4.21-1.618-11.487-5.127-15.082-11.061.371.237.77.485 1.193.744 3.753 2.276 9.473 5.192 14.596 5.553" mask="url(#nga0ji8onb)"/>
                <path fill="#FF9C79" d="M608.558 195.121c-.159 1.053-.313 2.044-.47 2.98-1.155 7.018-2.217 10.8-4.165 12.296-9.867 7.571-27.27-5.808-27.828-6.24-.01-.007-.015-.013-.015-.013-.057-.818-.096-1.626-.125-2.423-.229-6.759.606-12.88 2.138-18.586.591-6.168 5.085-11.326 11.156-12.569 6.29-1.285 11.25 2.135 14.318 3.604 4.631 2.221 6.752 8.946 5.447 17.887-.157 1.074-.307 2.096-.456 3.064" mask="url(#nga0ji8onb)"/>
                <path fill="#363638" d="M599.738 203.299c-5.517 0-7.725-5.28-7.749-5.339-.104-.257.02-.549.276-.653.257-.104.55.019.654.276.095.234 2.41 5.713 8.433 4.553.275-.052.535.126.587.398.053.272-.126.535-.397.587-.637.122-1.238.178-1.804.178M595.495 184.242c1.418-.491 1.13-2.582-.368-2.678-2.555-.165-6.65-.101-6.992 1.956-.5 3.009 4.262 1.755 7.271.752l.09-.03M603.02 185.127c-1.1-1.02.007-2.818 1.416-2.303 2.404.88 6.125 2.588 5.61 4.61-.755 2.955-4.609-.113-6.958-2.244l-.068-.063" mask="url(#nga0ji8onb)"/>
                <path fill="#F06A3F" d="M595.672 205.763c1.009.252 1.863.056 1.917.042.179-.042.289-.222.246-.4-.043-.179-.222-.288-.401-.246-.016.004-1.67.375-2.916-.728-.138-.123-.348-.109-.47.028s-.11.348.028.47c.514.455 1.075.704 1.596.834" mask="url(#nga0ji8onb)"/>
                <path fill="#363638" d="M599.134 198.904c-.085-.042-.153-.117-.186-.213-.063-.193.04-.4.234-.463l2.409-.792-1.431-1.449c-.078-.078-.115-.187-.103-.297l.444-3.986c.023-.201.204-.346.405-.323.2.022.347.203.325.404l-.425 3.812 1.723 1.744c.088.09.125.22.095.344-.03.123-.122.222-.242.261l-2.97.978c-.095.031-.195.022-.278-.02M594.94 192.128c-.17 1.137-.823 1.98-1.459 1.887-.636-.095-1.015-1.093-.845-2.23.17-1.136.822-1.981 1.458-1.886.636.094 1.014 1.092.845 2.229M606.187 193.802c-.17 1.137-.822 1.982-1.458 1.887-.637-.095-1.016-1.094-.846-2.23.17-1.137.822-1.982 1.457-1.887.637.095 1.015 1.093.846 2.23M580.48 200.095c-.074.12-2.085 3.363-4.386 4.061l-.004.001-.009-.013c-.058-.818-.098-1.626-.125-2.424.083 0 2.31-.056 4.524-1.625" mask="url(#nga0ji8onb)"/>
                <path fill="#FF9C79" d="M579.572 191.89s-3.637-6.781-7.68-2.48c-3.333 3.546.267 14.84 6.396 11.823l1.284-9.342z" mask="url(#nga0ji8onb)"/>
                <path fill="#363638" d="M577.823 199.379c-.236-.035-.412-.243-.403-.486.182-4.696-3.449-6.883-3.603-6.974-.225-.132-.3-.421-.17-.646.132-.226.42-.302.646-.17.176.1 4.277 2.549 4.072 7.827-.01.26-.23.464-.49.454l-.052-.005" mask="url(#nga0ji8onb)"/>
                <path fill="#363638" d="M573.88 195.894c-.136-.02-.262-.1-.337-.227-.133-.224-.06-.514.165-.647.21-.125 2.082-1.196 3.435-.627.24.1.353.378.252.619-.101.24-.38.353-.62.252-.775-.326-2.161.318-2.584.569-.097.058-.206.077-.31.06" mask="url(#nga0ji8onb)"/>
                <path fill="#FFF" d="M595.414 186.13c-3.04-1.163-6.459.367-7.62 3.407-1.161 3.041.367 6.46 3.408 7.621 3.04 1.161 6.459-.367 7.621-3.408 1.161-3.04-.368-6.46-3.409-7.62m-4.572 11.971c-3.561-1.36-5.351-5.363-3.991-8.924 1.36-3.56 5.363-5.35 8.923-3.99 3.561 1.36 5.351 5.362 3.992 8.923-1.361 3.561-5.364 5.351-8.924 3.991" mask="url(#nga0ji8onb)"/>
                <path fill="#FFF" d="M587.067 190.1c-.062-.002-.124-.017-.184-.044-3.74-1.714-7.25-.407-7.285-.393-.26.099-.552-.031-.65-.291-.1-.26.03-.552.29-.652.16-.06 3.945-1.47 8.066.419.253.116.365.415.248.669-.089.193-.285.304-.485.293M610.707 187.858c-3.04-1.162-6.459.367-7.621 3.408-1.161 3.041.368 6.46 3.409 7.621 3.04 1.161 6.459-.368 7.62-3.409 1.162-3.04-.367-6.459-3.408-7.62m-4.572 11.971c-3.561-1.36-5.351-5.363-3.991-8.923 1.36-3.56 5.363-5.35 8.923-3.99 3.561 1.36 5.351 5.362 3.991 8.922-1.36 3.561-5.363 5.351-8.923 3.991" mask="url(#nga0ji8onb)"/>
                <path fill="#FFF" d="M599.44 191.181c-.077-.04-.144-.1-.192-.178-.149-.236-.078-.547.16-.696.07-.043 1.751-1.07 3.498.271.221.17.262.486.093.707-.17.221-.487.264-.707.093-1.198-.919-2.338-.223-2.349-.216-.158.1-.35.1-.504.02" mask="url(#nga0ji8onb)"/>
                <path fill="#363638" d="M603.141 167.964c4.197 1.89 7.495 5.386 8.966 9.748.922 2.733 1.694 6.338-2.149 5.872-10.48-1.272-16.087-12.147-16.087-12.147s-2.043 10.023-10.274 8.798c-8.23-1.226-7.968-7.434-3.29-10.944 3.813-2.862 13.521-5.524 22.834-1.327" mask="url(#nga0ji8onb)"/>
                <path fill="#363638" d="M583.922 179.083s-4.685 5.026-3.004 10.439c1.68 5.413 1.794 9.75.042 12.657 0 0-.453-5.7-2.538-10.018-1.712-3.546-3.311-6.247-2.074-10.338.848-2.808 2.902-5.507 7.574-2.74" mask="url(#nga0ji8onb)"/>
                <path fill="#00B770" d="M576.312 203.624c-3.629.876-6.439.368-8.519-.935-.33-.21-.644-.44-.94-.685-4.363-3.65-4.686-11.22-2.014-14.932.943-1.314 2.035-2.193 3.176-2.752.347-.175.696-.316 1.052-.432 4.508-1.477 9.398 1.226 9.398 1.226 5.12 14.078-2.153 18.51-2.153 18.51" mask="url(#nga0ji8onb)"/>
                <path fill="#FFF" d="M589.082 209.778c-10.609-2.17-15.119-9.813-15.328-10.175-.169-.294-.068-.67.227-.84.294-.167.669-.066.838.228.069.117 5.578 9.382 18.441 10.084.34.019.597.308.579.646-.019.339-.308.599-.647.58-1.461-.08-2.83-.261-4.11-.523" mask="url(#nga0ji8onb)"/>
                <path fill="#133131" d="M596.644 210.136c-.216 1.063-1.255 1.749-2.317 1.532-1.064-.218-1.75-1.256-1.534-2.319.217-1.064 1.256-1.75 2.32-1.532 1.063.217 1.75 1.256 1.531 2.319" mask="url(#nga0ji8onb)"/>
                <path fill="#007D55" d="M567.794 202.689c-.331-.21-.645-.438-.941-.685 3.355-7.602 2.22-14.238 1.163-17.684.346-.175.696-.316 1.05-.432 1.13 3.649 2.366 10.738-1.272 18.8" mask="url(#nga0ji8onb)"/>
                <path fill="#FFF" d="M610.865 174.863c-.89-1.669-1.883-2.782-2.369-3.334-.408-1.186-.853-2.307-1.515-3.355-2.219-3.52-5.733-5.676-10.447-6.408-5.095-.787-9.512.216-13.13 2.991-1.13.865-2.133 1.865-3.025 2.946-1.242 1.509-2.267 3.176-3.11 4.853-2.916 5.84-3.615 11.839-3.625 11.924l-1.39-.15c.061-.571 1.631-14.048 10.298-20.686 3.934-3.014 8.712-4.112 14.195-3.262 5.138.795 8.975 3.169 11.423 7.05 1.416 2.246 2.25 4.811 2.695 7.431" mask="url(#nga0ji8onb)"/>
                <path fill="#363638" d="M558.1 328.758l-4.837-9.198c-1.206-2.294.476-5.044 3.067-5.016l76.026.819-2.241 11.777-72.014 1.618z" mask="url(#nga0ji8onb)"/>
                <path fill="#363638" d="M628.802 326.168h-68.038c-1.642 0-2.826-1.33-2.645-2.973l4.639-42.035c.18-1.64 1.659-2.972 3.3-2.972h68.038c1.643 0 2.826 1.331 2.645 2.972l-4.638 42.035c-.182 1.642-1.66 2.973-3.301 2.973" mask="url(#nga0ji8onb)"/>
                <path fill="#594B53" d="M559.75 327.98c-.024 0-.048 0-.072-.003-.315-.04-.538-.327-.498-.642l5.647-45.024c.039-.314.325-.537.64-.498.315.039.538.326.499.64l-5.648 45.026c-.036.29-.283.502-.568.502" mask="url(#nga0ji8onb)"/>
                <path fill="#575759" d="M592.85 302.926c-.26 3.377 2.227 6.286 5.554 6.498 3.328.212 6.237-2.352 6.498-5.729.26-3.376-2.229-6.287-5.557-6.498-3.327-.212-6.236 2.352-6.495 5.729" mask="url(#nga0ji8onb)"/>
                <path fill="#363638" d="M629.129 329.83h-68.976c-1.516 0-2.684-1.339-2.48-2.842l.657-4.805h74.027l-.75 5.483c-.168 1.24-1.227 2.163-2.478 2.163" mask="url(#nga0ji8onb)"/>
                <path fill="#FEB205" d="M576.139 316.261l-1.86-.001-.495 2.397 1.86.001.495-2.397zm3.007.001l-.495 2.398 2.273.001-.254 2.855-2.631-.001-.551 2.607-3.007-.002.552-2.606-1.861-.001-.552 2.607-3.006-.002.55-2.607-2.272-.001.254-2.854 2.63.001.496-2.399-2.274-.001.254-2.854 2.63.001.553-2.608 3.007.001-.552 2.608 1.86.001.55-2.608 3.008.002-.551 2.607 2.274.001-.254 2.855-2.631-.001z" mask="url(#nga0ji8onb)"/>
                <path fill="#FE615B" d="M647.879 249.818c0 10.364 8.402 18.766 18.767 18.766 10.363 0 18.765-8.402 18.765-18.766 0-10.364-8.402-18.766-18.765-18.766-10.365 0-18.767 8.402-18.767 18.766" mask="url(#nga0ji8onb)"/>
                <path fill="#FE615B" d="M657.048 265.166L646.964 267.3 651.33 258.609z" mask="url(#nga0ji8onb)"/>
                <path fill="#FFF" d="M663.763 256.451c0-1.899 1.53-3.346 3.743-3.346 2.212 0 3.743 1.447 3.743 3.346 0 1.872-1.531 3.403-3.743 3.403-2.212 0-3.743-1.53-3.743-3.403m4.48-10.662c0-.879-.85-1.333-1.9-1.333-1.22 0-2.353.737-2.95 1.93l-5.047-2.526c1.446-2.722 4.31-4.594 8.849-4.594 4.452 0 7.769 1.872 7.769 5.416 0 4.34-4.537 5.105-4.537 7.29h-5.842c0-3.432 3.658-4.454 3.658-6.183" mask="url(#nga0ji8onb)"/>
                <path fill="#00B770" d="M461.345 356.474s-7.666-12.047-26.283-22.998c-13.148-7.733-20.808-29.568-20.808-29.568s25.189 1.094 36.14 16.426c10.95 15.332 10.95 36.14 10.95 36.14" mask="url(#nga0ji8onb)"/>
                <path fill="#363638" d="M461.428 356.796c-.166 0-.318-.11-.362-.278-3.542-13.368-11.294-23.062-17.174-28.84-6.37-6.262-11.963-9.394-12.02-9.425-.18-.1-.245-.328-.144-.51.1-.18.329-.246.51-.145.056.031 5.737 3.213 12.18 9.545 5.947 5.844 13.787 15.651 17.372 29.182.053.2-.066.406-.266.46-.033.007-.065.011-.096.011" mask="url(#nga0ji8onb)"/>
                <path fill="#00B770" d="M458.042 356.199s-2.19-4.38-12.047-3.286c-9.856 1.096-15.332 6.572-32.853-3.285 0 0 13.14-10.95 27.378-8.76 14.237 2.189 15.332 7.666 17.522 15.33" mask="url(#nga0ji8onb)"/>
                <path fill="#363638" d="M458.09 356.574c-.124 0-.247-.063-.317-.177-.044-.068-4.454-6.996-11.543-8.284-12.39-2.252-20.827 1.707-20.911 1.748-.185.09-.41.012-.5-.175-.09-.186-.011-.41.175-.5.086-.042 8.727-4.11 21.369-1.811 7.42 1.349 11.86 8.329 12.045 8.625.11.176.056.406-.12.517-.061.038-.13.057-.198.057" mask="url(#nga0ji8onb)"/>
                <path fill="#00B770" d="M462.346 355.14s-.86-4.821 7.7-9.83c8.56-5.007 16.222-3.885 24.39-22.255 0 0-17.081-.936-27.193 9.323-10.11 10.259-7.718 15.306-4.897 22.762" mask="url(#nga0ji8onb)"/>
                <path fill="#363638" d="M462.307 355.544c-.194 0-.358-.148-.374-.345-.027-.348-.637-8.597 4.51-14.112 8.768-9.394 18.127-11.29 18.22-11.309.202-.039.4.094.44.297.04.203-.094.401-.296.44-.093.017-9.225 1.88-17.816 11.084-4.923 5.274-4.317 13.457-4.31 13.54.017.206-.137.386-.344.403l-.03.002" mask="url(#nga0ji8onb)"/>
                <path fill="#FE615B" d="M472.427 361.094h-24.001c-1.416 0-2.574-1.158-2.574-2.574v-1.081c0-1.416 1.158-2.575 2.574-2.575h24c1.417 0 2.575 1.159 2.575 2.575v1.081c0 1.416-1.158 2.574-2.574 2.574" mask="url(#nga0ji8onb)"/>
                <path fill="#FE615B" d="M460.538 414.72c-19.583 0-32.044-3.115-30.04-16.91 1.27-8.754 8.098-17.331 12.916-22.428.677-.717 1.316-1.366 1.894-1.935 1.787-1.765 2.99-2.783 2.99-2.783l.055-.318.341-1.936.394-2.226.9-5.09.314-1.78 10.236-.446 10.68.447.243 1.779.384 2.793.622 4.523.265 1.936.043.318s1.205 1.018 2.991 2.783c.579.569 1.216 1.218 1.895 1.935 4.818 5.097 11.646 13.674 12.917 22.429 2.003 13.794-10.46 16.91-30.04 16.91" mask="url(#nga0ji8onb)"/>
                <path fill="#C52B4B" d="M472.732 370.346L448.353 370.346 448.694 368.41 472.466 368.41zM477.661 375.382h-34.247c.677-.717 1.316-1.366 1.893-1.936h30.458c.58.57 1.217 1.219 1.896 1.936M471.845 363.887L449.088 366.184 449.988 361.094 471.461 361.094z" mask="url(#nga0ji8onb)"/>
                <path fill="#FFF" d="M260.005 232.491h-9.238c-.92 0-1.663-.744-1.663-1.662v-6.368c0-.918.744-1.662 1.663-1.662h9.238c.918 0 1.663.744 1.663 1.662v6.368c0 .918-.745 1.662-1.663 1.662" mask="url(#nga0ji8onb)"/>
                <path fill="#FFF" d="M265.306 222.799L265.306 232.491 261.391 229.195 261.391 226.094z" mask="url(#nga0ji8onb)"/>
                <path fill="#FC615B" d="M274.1 227.645c0 4.457 3.612 8.07 8.07 8.07 4.457 0 8.07-3.613 8.07-8.07 0-4.456-3.613-8.07-8.07-8.07-4.458 0-8.07 3.614-8.07 8.07" mask="url(#nga0ji8onb)"/>
                <path fill="#FFF" d="M278.364 232.298c.217 0 .434-.083.599-.248l7.61-7.61c.333-.332.333-.869 0-1.2-.33-.33-.866-.33-1.197 0l-7.611 7.612c-.331.331-.331.867 0 1.198.165.165.382.248.599.248" mask="url(#nga0ji8onb)"/>
                <path fill="#FFF" d="M285.975 232.298c.217 0 .434-.083.599-.248.331-.33.331-.867 0-1.198l-7.611-7.612c-.331-.33-.868-.33-1.198 0-.332.331-.332.868 0 1.2l7.611 7.61c.165.165.382.248.599.248M236.478 231.736h.771c1.009 0 1.834-.825 1.834-1.835v-7.904c0-1.01-.825-1.835-1.834-1.835h-.771c-1.009 0-1.835.826-1.835 1.835v7.904c0 1.01.826 1.835 1.835 1.835" mask="url(#nga0ji8onb)"/>
                <path fill="#FFF" d="M236.785 234.48h.157c.207 0 .376-.168.376-.375v-4.68c0-.205-.17-.374-.376-.374h-.157c-.207 0-.375.169-.375.375v4.679c0 .207.168.376.375.376" mask="url(#nga0ji8onb)"/>
                <path fill="#FFF" d="M233.193 234.898h7.34c.435 0 .79-.354.79-.79v-.33c0-.434-.355-.79-.79-.79h-7.34c-.434 0-.79.356-.79.79v.33c0 .436.356.79.79.79" mask="url(#nga0ji8onb)"/>
                <path fill="#C52B4B" d="M184.642 198.995c-.59.42-1.15.77-1.68 1.04l.16.78c.62-.31 1.28-.71 1.97-1.2 3.24-2.34 5.37-.4 7.64 1.66.1.09.2.19.3.28l.87-.24-.66-.6c-2.27-2.07-4.86-4.42-8.6-1.72m17.13-.29c-.47-4.2-3.92-7.6-8.22-8.07-3.34-.37-7.21-.51-10.2.19-.81.19-1.56.44-2.22.78l.17.77c2.33-1.25 6.51-1.6 12.16-.98 1.81.2 3.46.96 4.76 2.1 1.29 1.14 2.23 2.65 2.63 4.36.07.31.13.62.16.94.02.19.04.38.04.56l.76-.21c-.01-.15-.03-.29-.04-.44" mask="url(#nga0ji8onb)"/>
            </g>
        </g>
    </g>
</svg>
